<svg width="53" height="37" fill="none" xmlns="http://www.w3.org/2000/svg"><path d="M52.434 2.3C51.327-.55 49.076-.1 46.636.382c-1.456.305-7.938 2.2-18.192 13.015-4.257 4.488-7.063 8.066-8.912 10.794-1.129-1.386-2.424-2.87-3.782-4.228-4.178-4.177-8.836-7.045-9.031-7.166A4.153 4.153 0 002.38 19.88c.04.025 4.04 2.5 7.496 5.956 3.526 3.525 6.718 8.292 6.75 8.338a4.157 4.157 0 004.168 1.79 4.153 4.153 0 003.32-3.09c.009-.038 1.657-4.59 10.357-13.762 7.006-7.389 11.68-9.738 13.298-10.389.016-.002 2.661-1.145 2.691-1.157 2.11-.866 2.798-3.14 1.973-5.268z" fill="#7A1E21"/></svg>