<svg width="53" height="37" viewBox="0 0 53 37" fill="none" xmlns="http://www.w3.org/2000/svg">
<path d="M52.4335 2.29947C51.3273 -0.549461 49.0761 -0.0997726 46.6363 0.383327C45.1797 0.687634 38.6981 2.58391 28.4437 13.3981C24.187 17.886 21.3806 21.4636 19.5321 24.1924C18.4034 22.8064 17.1085 21.3227 15.7504 19.9637C11.5723 15.7874 6.91376 12.9186 6.71871 12.7976C4.76193 11.6021 2.21008 12.217 1.01182 14.1711C-0.184644 16.1251 0.428486 18.6806 2.38075 19.8807C2.42138 19.906 6.42163 22.3801 9.87737 25.8368C13.4026 29.3621 16.5947 34.1289 16.6272 34.175C17.4056 35.3435 18.7113 36.0261 20.0848 36.0261C20.3204 36.0261 20.5561 36.0063 20.7945 35.9656C22.4154 35.6839 23.7184 34.4721 24.1148 32.8747C24.1238 32.8368 25.7718 28.2848 34.4721 19.1131C41.4784 11.724 46.1514 9.3753 47.7704 8.72424C47.7858 8.72153 50.4315 7.57925 50.4613 7.56661C52.5716 6.70064 53.2588 4.42782 52.4335 2.29947Z" fill="#7A1E21"/>
</svg>
