<svg width="150" height="150" fill="none" xmlns="http://www.w3.org/2000/svg"><path d="M104.582 46.086a2.05 2.05 0 00-1.449.601l-35.71 35.709-20.55-20.552a2.11 2.11 0 00-2.898 0L35.69 70.13a2.05 2.05 0 000 2.899l30.288 30.285a2.039 2.039 0 001.45.601 2.05 2.05 0 001.448-.601l45.44-45.442a2.053 2.053 0 000-2.9l-8.285-8.285a2.048 2.048 0 00-1.449-.6zm-37.158 52.88L40.039 71.58l5.39-5.39 20.549 20.554a2.047 2.047 0 002.898 0l35.706-35.708 5.389 5.39-42.547 42.54z" fill="#971E00"/><path d="M75 19.152A55.849 55.849 0 10130.848 75a55.915 55.915 0 00-55.85-55.85zm0 107.597a51.75 51.75 0 01-36.592-88.34 51.75 51.75 0 0188.34 36.592 51.81 51.81 0 01-51.749 51.748z" fill="#971E00"/><path d="M147.674 81.577a10.454 10.454 0 000-13.153l-3.36-4.194a6.419 6.419 0 01-1.152-5.81l1.5-5.145a10.59 10.59 0 00-5.045-12.172l-4.695-2.577a6.425 6.425 0 01-3.298-4.921l-.586-5.337a10.454 10.454 0 00-9.304-9.304l-5.336-.586a6.422 6.422 0 01-4.921-3.297l-2.578-4.695A10.453 10.453 0 0096.726 5.34l-5.144 1.5a6.433 6.433 0 01-5.812-1.153l-4.194-3.36a10.46 10.46 0 00-13.153 0l-4.194 3.36a6.445 6.445 0 01-5.81 1.152l-5.145-1.5a10.583 10.583 0 00-12.172 5.045l-2.578 4.695a6.422 6.422 0 01-4.92 3.298l-5.337.586a10.455 10.455 0 00-9.304 9.304l-.586 5.336a6.42 6.42 0 01-3.297 4.921l-4.696 2.578A10.46 10.46 0 005.34 53.274l1.5 5.142a6.433 6.433 0 01-1.152 5.813l-3.36 4.194a10.457 10.457 0 000 13.153l3.36 4.194a6.424 6.424 0 011.152 5.81l-1.5 5.145a10.586 10.586 0 005.043 12.173l4.694 2.578a6.424 6.424 0 013.299 4.921l.585 5.336a10.454 10.454 0 009.304 9.304l5.337.586a6.418 6.418 0 014.92 3.297l2.578 4.696a10.452 10.452 0 0012.174 5.045l5.142-1.501a6.437 6.437 0 015.812 1.153l4.195 3.36a10.454 10.454 0 0013.153 0l4.194-3.36a6.42 6.42 0 015.81-1.152l5.145 1.5a10.46 10.46 0 0012.172-5.045l2.577-4.695a6.419 6.419 0 014.921-3.298l5.337-.586a10.45 10.45 0 009.304-9.304l.586-5.336a6.421 6.421 0 013.296-4.921l4.696-2.578a10.462 10.462 0 005.045-12.173l-1.5-5.142a6.426 6.426 0 011.152-5.813l3.364-4.193zm-6.561 1.632a10.531 10.531 0 00-1.889 9.523l1.502 5.142a6.377 6.377 0 01-3.079 7.427l-4.697 2.578a10.52 10.52 0 00-5.401 8.074l-.586 5.336a6.387 6.387 0 01-5.677 5.678l-5.338.586a10.53 10.53 0 00-8.073 5.402l-2.577 4.696a6.387 6.387 0 01-7.426 3.079l-5.144-1.501a10.529 10.529 0 00-9.521 1.888l-4.195 3.36a6.382 6.382 0 01-8.028 0l-4.194-3.36a10.531 10.531 0 00-9.523-1.889l-5.141 1.501a6.386 6.386 0 01-7.427-3.079l-2.578-4.697a10.516 10.516 0 00-8.074-5.401l-5.336-.586a6.388 6.388 0 01-5.678-5.678l-.586-5.338a10.525 10.525 0 00-5.402-8.072l-4.696-2.578a6.458 6.458 0 01-3.078-7.426l1.5-5.143a10.53 10.53 0 00-1.887-9.522l-3.362-4.194a6.383 6.383 0 010-8.028l3.36-4.195a10.537 10.537 0 001.889-9.523l-1.5-5.142a6.382 6.382 0 013.08-7.427l4.696-2.578a10.522 10.522 0 005.401-8.073l.586-5.337a6.385 6.385 0 015.686-5.674l5.338-.586a10.525 10.525 0 008.072-5.402l2.578-4.696a6.463 6.463 0 017.418-3.082l5.143 1.501a10.53 10.53 0 009.522-1.887l4.194-3.363a6.382 6.382 0 018.028 0l4.195 3.36a10.546 10.546 0 009.523 1.89l5.142-1.5a6.389 6.389 0 017.427 3.078l2.578 4.697a10.517 10.517 0 008.073 5.401l5.337.587a6.385 6.385 0 015.678 5.677l.585 5.338a10.52 10.52 0 005.403 8.073l4.696 2.577a6.457 6.457 0 013.079 7.426l-1.501 5.143a10.541 10.541 0 001.887 9.522l3.361 4.195a6.388 6.388 0 010 8.028l-3.363 4.194z" fill="#971E00"/></svg>