<svg width="150" height="150" fill="none" xmlns="http://www.w3.org/2000/svg"><path d="M149.444 71.468l-12.041-14.877 1.807-18.883a2.78 2.78 0 00-1.724-2.78l-17.631-7.203-7.897-17.241a2.781 2.781 0 00-2.92-1.585l-18.771 2.78L74.805.557a2.781 2.781 0 00-3.337 0l-14.877 12.04-18.883-1.807a2.78 2.78 0 00-2.78 1.752l-7.203 17.603-17.241 7.897a2.78 2.78 0 00-1.585 2.92l2.78 18.771L.557 75.195a2.781 2.781 0 000 3.337L12.32 93.409l-1.807 18.882a2.78 2.78 0 001.752 2.781l17.88 7.203 7.898 17.241a2.779 2.779 0 002.92 1.585l18.771-2.781 15.462 11.124a2.783 2.783 0 003.337 0l14.877-11.763 18.882 1.807a2.78 2.78 0 002.781-1.724l7.203-17.909 17.241-7.897a2.78 2.78 0 001.585-2.92l-2.781-18.771 11.124-15.462a2.783 2.783 0 000-3.337zm-16.379 16.49a2.78 2.78 0 00-.473 2.003l2.586 17.798-16.379 7.48c-.648.3-1.156.838-1.419 1.502l-6.646 16.685-17.909-1.696a2.782 2.782 0 00-1.974.584l-14.127 11.123-14.655-10.428a2.776 2.776 0 00-1.613-.528h-.39l-17.797 2.586-7.48-16.352a2.78 2.78 0 00-1.502-1.418l-16.685-6.646 1.696-17.909a2.782 2.782 0 00-.584-1.975L6.591 76.641l10.428-14.656a2.78 2.78 0 00.473-2.002l-2.587-17.797 16.38-7.48a2.782 2.782 0 001.418-1.503l6.646-16.685 17.909 1.697a2.782 2.782 0 001.974-.584L73.36 6.507l14.656 10.428a2.78 2.78 0 002.002.473l17.797-2.586 7.481 16.38c.3.647.838 1.155 1.501 1.418l16.686 6.646-1.697 17.909a2.782 2.782 0 00.584 1.974l11.124 14.127-10.428 14.683z" fill="#971E00"/><path d="M116.247 63.88a2.785 2.785 0 00-1.605-.823v.083L88.75 59.383 77.168 35.809a2.785 2.785 0 00-4.983 0L60.604 59.272l-25.892 3.757a2.783 2.783 0 00-1.531 4.76l18.736 18.257-4.426 25.772a2.783 2.783 0 004.037 2.923l23.135-12.135 23.163 12.163a2.785 2.785 0 004.037-2.923l-4.427-25.772 18.737-18.258a2.783 2.783 0 00.074-3.935zM92.508 83.125a2.783 2.783 0 00-.807 2.449l3.703 21.681-19.488-10.242a2.785 2.785 0 00-2.59 0l-19.488 10.242 3.703-21.681a2.783 2.783 0 00-.807-2.45L40.976 67.789l21.771-3.173a2.784 2.784 0 002.088-1.53l9.828-19.65 9.744 19.705a2.784 2.784 0 002.088 1.531l21.771 3.173-15.758 15.28z" fill="#971E00"/></svg>