<svg width="117" height="150" fill="none" xmlns="http://www.w3.org/2000/svg"><path d="M116.016 24.467L91.548 0H18.75v79.768C8.263 80.663 0 89.48 0 100.195c0 6.153 2.727 11.676 7.031 15.439V150h4.83l8.647-8.647L29.155 150h4.83v-15.234h82.031V24.467zM92.578 6.001l17.436 17.436H92.578V6.002zM3.516 100.195c0-9.37 7.622-16.992 16.992-16.992 9.37 0 16.992 7.623 16.992 16.992 0 9.37-7.623 16.993-16.992 16.993-9.37 0-16.992-7.623-16.992-16.993zm16.992 36.186l-9.961 9.961v-28.229a20.38 20.38 0 009.96 2.59c3.614 0 7.01-.943 9.962-2.59v28.229l-9.961-9.961zm13.476-5.131v-15.616c4.305-3.763 7.032-9.286 7.032-15.439 0-10.715-8.263-19.532-18.75-20.427V3.516h66.796v23.437H112.5V131.25H33.984z" fill="#7A1E21"/><path d="M34.57 18.75h28.125v3.516H34.57V18.75zm0 9.375h18.75v3.516H34.57v-3.516zm0 14.063h65.625v3.515H34.57v-3.516zm0 9.375h65.625v3.515H34.57v-3.516zm0 18.75h65.625v3.515H34.57v-3.516zm9.375 9.375H90.82v3.515H43.945v-3.516zm-9.375-18.75h65.625v3.515H34.57v-3.516zm37.5 32.812h28.125v3.516H72.07V93.75zm9.375 9.375h18.75v3.516h-18.75v-3.516zm-60.937 8.203c6.138 0 11.133-4.994 11.133-11.133 0-6.138-4.995-11.132-11.133-11.132-6.139 0-11.133 4.994-11.133 11.132 0 6.139 4.994 11.133 11.133 11.133zm0-18.75c4.2 0 7.617 3.417 7.617 7.617 0 4.201-3.417 7.617-7.617 7.617s-7.617-3.416-7.617-7.617c0-4.2 3.417-7.617 7.617-7.617z" fill="#7A1E21"/></svg>