<svg width="15" height="12" fill="none" xmlns="http://www.w3.org/2000/svg"><path d="M14.707 4.47c-.674.528-1.523 1.173-4.512 3.34-.586.44-1.67 1.407-2.695 1.407-1.055 0-2.11-.967-2.725-1.406C1.787 5.643.937 4.998.264 4.47.146 4.383 0 4.47 0 4.617v5.977C0 11.384.615 12 1.406 12h12.188c.761 0 1.406-.615 1.406-1.406V4.617c0-.146-.176-.234-.293-.146zM7.5 8.25c.674.03 1.64-.85 2.139-1.201 3.896-2.813 4.19-3.076 5.068-3.78A.667.667 0 0015 2.714v-.557C15 1.395 14.355.75 13.594.75H1.406C.616.75 0 1.395 0 2.156v.557c0 .234.088.44.264.557.879.703 1.172.966 5.068 3.779C5.83 7.4 6.797 8.279 7.5 8.25z" fill="#202E42" fill-opacity=".5"/></svg>