<svg width="150" height="150" viewBox="0 0 150 150" fill="none" xmlns="http://www.w3.org/2000/svg">
<path d="M104.582 46.0861C104.038 46.0863 103.517 46.3025 103.133 46.6871L67.4237 82.3959L46.8733 61.8444C46.4817 61.474 45.9631 61.2675 45.424 61.2675C44.885 61.2675 44.3664 61.474 43.9747 61.8444L35.6902 70.1302C35.306 70.5147 35.0901 71.036 35.0901 71.5795C35.0901 72.123 35.306 72.6443 35.6902 73.0288L65.9779 103.314C66.1681 103.505 66.394 103.656 66.6427 103.759C66.8914 103.862 67.158 103.915 67.4272 103.915C67.6964 103.915 67.963 103.862 68.2117 103.759C68.4604 103.656 68.6863 103.505 68.8765 103.314L114.316 57.8715C114.7 57.4868 114.916 56.9653 114.916 56.4216C114.916 55.8778 114.7 55.3563 114.316 54.9717L106.031 46.6871C105.647 46.3025 105.126 46.0863 104.582 46.0861ZM67.4237 98.9651L40.0392 71.5795L45.4287 66.19L65.9779 86.7439C66.1681 86.9344 66.394 87.0855 66.6427 87.1886C66.8914 87.2918 67.158 87.3448 67.4272 87.3448C67.6964 87.3448 67.963 87.2918 68.2117 87.1886C68.4604 87.0855 68.6863 86.9344 68.8765 86.7439L104.582 51.0362L109.971 56.4257L67.4237 98.9651Z" fill="#971E00"/>
<path d="M74.9994 19.1516C63.9535 19.1516 53.1556 22.4271 43.9713 28.5639C34.787 34.7007 27.6286 43.4231 23.4016 53.6282C19.1745 63.8333 18.0685 75.0627 20.2234 85.8963C22.3784 96.73 27.6975 106.681 35.5081 114.492C43.3188 122.303 53.2701 127.622 64.1038 129.777C74.9375 131.932 86.1668 130.826 96.3719 126.599C106.577 122.371 115.299 115.213 121.436 106.029C127.573 96.8445 130.849 86.0466 130.849 75.0007C130.832 60.1938 124.942 45.998 114.472 35.5279C104.002 25.0578 89.8064 19.1684 74.9994 19.1516ZM74.9994 126.749C64.7645 126.749 54.7595 123.714 46.2495 118.028C37.7395 112.342 31.1068 104.26 27.1901 94.804C23.2734 85.3482 22.2486 74.9433 24.2453 64.9051C26.242 54.8669 31.1706 45.6462 38.4077 38.4091C45.6449 31.1719 54.8656 26.2434 64.9038 24.2466C74.942 22.2499 85.3469 23.2747 94.8027 27.1914C104.258 31.1081 112.34 37.7409 118.027 46.2508C123.713 54.7608 126.748 64.7658 126.748 75.0007C126.732 88.7205 121.275 101.874 111.574 111.575C101.873 121.277 88.7192 126.734 74.9994 126.749Z" fill="#971E00"/>
<path d="M147.674 81.577C149.18 79.7159 150.001 77.3945 150.001 75.0007C150.001 72.6068 149.18 70.2855 147.674 68.4243L144.314 64.2299C143.67 63.4249 143.229 62.4768 143.029 61.4655C142.828 60.4543 142.874 59.4096 143.162 58.4198L144.662 53.2752C145.32 50.9748 145.18 48.5191 144.264 46.3086C143.348 44.0981 141.71 42.2632 139.617 41.1032L134.922 38.5256C134.018 38.0303 133.246 37.3246 132.672 36.4681C132.098 35.6116 131.738 34.6295 131.624 33.6048L131.038 28.268C130.788 25.8862 129.727 23.6626 128.033 21.9691C126.34 20.2755 124.116 19.2148 121.734 18.9641L116.398 18.3783C115.373 18.2643 114.391 17.9052 113.534 17.3313C112.678 16.7574 111.972 15.9857 111.477 15.0813L108.899 10.3855C107.757 8.27546 105.924 6.6225 103.707 5.7039C101.491 4.7853 99.0259 4.65697 96.726 5.34043L91.5825 6.83894C90.5922 7.12671 89.5472 7.17219 88.5357 6.97155C87.5241 6.77091 86.5756 6.33002 85.7701 5.68606L81.5757 2.32583C79.7142 0.82095 77.393 0 74.9993 0C72.6057 0 70.2844 0.82095 68.423 2.32583L64.2286 5.68606C63.4228 6.32867 62.4746 6.76863 61.4637 6.96903C60.4527 7.16943 59.4084 7.12442 58.4185 6.83777L53.2739 5.33809C50.9734 4.67907 48.5176 4.8191 46.307 5.73535C44.0964 6.65159 42.2615 8.28995 41.1018 10.3831L38.5242 15.0778C38.029 15.9822 37.3233 16.754 36.4668 17.3281C35.6103 17.9021 34.6281 18.2616 33.6034 18.3759L28.2667 18.9618C25.8848 19.2124 23.6612 20.2732 21.9677 21.9667C20.2742 23.6602 19.2134 25.8838 18.9628 28.2657L18.377 33.6024C18.263 34.6271 17.9038 35.6093 17.33 36.4658C16.7561 37.3224 15.9843 38.0281 15.08 38.5232L10.3841 41.1008C8.27459 42.2435 6.62203 44.0767 5.7035 46.293C4.78496 48.5094 4.65631 50.9741 5.33909 53.274L6.83995 58.4163C7.12772 59.4066 7.1732 60.4516 6.97255 61.4632C6.77191 62.4747 6.33103 63.4232 5.68706 64.2287L2.32684 68.4232C0.821342 70.2843 0 72.6057 0 74.9995C0 77.3933 0.821342 79.7147 2.32684 81.5758L5.68706 85.7703C6.33115 86.5752 6.77205 87.5234 6.97251 88.5347C7.17296 89.5459 7.12709 90.5906 6.83877 91.5804L5.33909 96.725C4.68002 99.0253 4.81976 101.481 5.73554 103.692C6.65132 105.903 8.28909 107.738 10.3818 108.898L15.0765 111.476C15.9808 111.971 16.7527 112.677 17.3267 113.533C17.9008 114.39 18.2602 115.372 18.3746 116.397L18.9604 121.733C19.2111 124.115 20.2719 126.339 21.9654 128.032C23.6589 129.726 25.8825 130.787 28.2643 131.037L33.6011 131.623C34.6258 131.737 35.6079 132.096 36.4645 132.67C37.321 133.244 38.0267 134.016 38.5219 134.92L41.0995 139.616C42.2417 141.726 44.0748 143.379 46.2913 144.297C48.5078 145.216 50.9728 145.344 53.2727 144.661L58.415 143.16C59.4054 142.873 60.4501 142.828 61.4616 143.029C62.473 143.229 63.4215 143.67 64.2274 144.313L68.4218 147.673C70.283 149.179 72.6043 150 74.9982 150C77.392 150 79.7133 149.179 81.5745 147.673L85.7689 144.313C86.574 143.669 87.5222 143.228 88.5334 143.028C89.5446 142.827 90.5892 142.873 91.579 143.161L96.7236 144.661C99.0234 145.344 101.488 145.215 103.704 144.296C105.92 143.378 107.753 141.725 108.896 139.616L111.473 134.921C111.968 134.017 112.674 133.245 113.531 132.671C114.387 132.097 115.369 131.737 116.394 131.623L121.731 131.037C124.113 130.787 126.336 129.726 128.03 128.032C129.723 126.339 130.784 124.115 131.035 121.733L131.621 116.397C131.735 115.372 132.094 114.39 132.668 113.533C133.241 112.677 134.013 111.971 134.917 111.476L139.613 108.898C141.723 107.755 143.375 105.922 144.294 103.706C145.213 101.49 145.341 99.0249 144.658 96.725L143.158 91.5827C142.87 90.5924 142.824 89.5474 143.025 88.5359C143.226 87.5243 143.666 86.5758 144.31 85.7703L147.674 81.577ZM141.113 83.2091C140.058 84.5287 139.335 86.0827 139.007 87.7401C138.678 89.3975 138.753 91.1096 139.224 92.7321L140.726 97.8743C141.143 99.2777 141.064 100.781 140.503 102.134C139.943 103.486 138.935 104.604 137.647 105.301L132.95 107.879C131.468 108.692 130.202 109.85 129.262 111.255C128.322 112.66 127.734 114.272 127.549 115.953L126.963 121.289C126.809 122.742 126.162 124.099 125.129 125.132C124.095 126.166 122.739 126.813 121.286 126.967L115.948 127.553C114.267 127.739 112.656 128.327 111.251 129.267C109.846 130.208 108.688 131.473 107.875 132.955L105.298 137.651C104.6 138.938 103.482 139.945 102.13 140.506C100.778 141.066 99.275 141.145 97.8718 140.73L92.7284 139.229C91.1063 138.757 89.3942 138.681 87.7369 139.01C86.0796 139.338 84.5257 140.061 83.2066 141.117L79.0122 144.477C77.8763 145.396 76.4594 145.898 74.9982 145.898C73.537 145.898 72.12 145.396 70.9842 144.477L66.7897 141.117C65.4703 140.061 63.9162 139.339 62.2588 139.01C60.6014 138.681 58.8892 138.756 57.2668 139.228L52.1257 140.729C50.7223 141.144 49.219 141.065 47.8671 140.504C46.5153 139.944 45.3968 138.936 44.6987 137.65L42.1211 132.953C41.3085 131.47 40.1504 130.205 38.7449 129.265C37.3395 128.325 35.7282 127.737 34.0475 127.552L28.7107 126.966C27.2575 126.812 25.9011 126.164 24.8678 125.131C23.8344 124.098 23.1868 122.741 23.033 121.288L22.4472 115.95C22.2612 114.27 21.6732 112.659 20.7328 111.254C19.7925 109.848 18.5274 108.69 17.0448 107.878L12.3489 105.3C11.0721 104.592 10.0728 103.473 9.51383 102.124C8.95487 100.776 8.8693 99.2778 9.27107 97.8743L10.7719 92.7309C11.2442 91.1088 11.3193 89.3968 10.9908 87.7395C10.6622 86.0823 9.9398 84.5284 8.88443 83.2091L5.52187 79.0147C4.60305 77.8786 4.10179 76.4618 4.10179 75.0007C4.10179 73.5396 4.60305 72.1227 5.52187 70.9867L8.88209 66.7923C9.93741 65.4727 10.6599 63.9186 10.9886 62.2613C11.3173 60.6039 11.2426 58.8917 10.7708 57.2693L9.27107 52.127C8.85472 50.7237 8.93343 49.2199 9.49401 47.8677C10.0546 46.5155 11.063 45.3972 12.3501 44.7001L17.0472 42.1225C18.53 41.3098 19.7951 40.1517 20.7353 38.7463C21.6755 37.3409 22.2631 35.7295 22.4484 34.0488L23.0342 28.712C23.1891 27.2582 23.8382 25.9016 24.8731 24.8689C25.908 23.8361 27.2659 23.1898 28.7201 23.0379L34.058 22.452C35.7385 22.2661 37.3495 21.6781 38.7547 20.7377C40.1598 19.7973 41.3178 18.5323 42.1305 17.0497L44.7081 12.3538C45.4155 11.0787 46.5334 10.0803 47.88 9.52083C49.2267 8.96141 50.723 8.87386 52.1257 9.27241L57.2691 10.7733C58.8912 11.2457 60.6032 11.3209 62.2605 10.9924C63.9178 10.6639 65.4717 9.94131 66.7909 8.88577L70.9853 5.5232C72.1213 4.60418 73.5382 4.10279 74.9993 4.10279C76.4605 4.10279 77.8774 4.60418 79.0133 5.5232L83.2077 8.88343C84.5277 9.93814 86.0817 10.6602 87.7389 10.9889C89.3962 11.3176 91.1082 11.2432 92.7307 10.7721L97.873 9.27241C99.2764 8.85763 100.78 8.9371 102.131 9.49753C103.483 10.058 104.602 11.0654 105.3 12.3514L107.878 17.0485C108.69 18.5313 109.848 19.7964 111.254 20.7366C112.659 21.6768 114.27 22.2644 115.951 22.4497L121.288 23.0355C122.741 23.1893 124.098 23.837 125.131 24.8703C126.164 25.9036 126.812 27.26 126.966 28.7132L127.551 34.0511C127.737 35.7317 128.325 37.3427 129.266 38.7478C130.206 40.153 131.471 41.3109 132.954 42.1237L137.65 44.7012C138.927 45.4089 139.926 46.5282 140.485 47.8768C141.044 49.2253 141.13 50.7234 140.729 52.127L139.228 57.2704C138.756 58.8926 138.681 60.6046 139.009 62.2618C139.338 63.9191 140.06 65.4729 141.115 66.7923L144.476 70.9867C145.394 72.1227 145.896 73.5396 145.896 75.0007C145.896 76.4618 145.394 77.8786 144.476 79.0147L141.113 83.2091Z" fill="#971E00"/>
</svg>
