<svg width="150" height="150" viewBox="0 0 150 150" fill="none" xmlns="http://www.w3.org/2000/svg">
<path d="M149.444 71.4683L137.403 56.5906L139.21 37.7085C139.299 36.5058 138.603 35.3827 137.486 34.9277L119.855 27.7252L111.958 10.4838C111.442 9.36832 110.254 8.72351 109.038 8.8987L90.267 11.6796L74.8053 0.556087C73.8167 -0.185362 72.4569 -0.185362 71.4683 0.556087L56.5906 12.5973L37.7085 10.7897C36.4988 10.7049 35.3733 11.4137 34.9277 12.5416L27.7252 30.1446L10.4838 38.0422C9.36832 38.5581 8.72351 39.7455 8.8987 40.9621L11.6796 59.733L0.556087 75.1947C-0.185362 76.1833 -0.185362 77.5431 0.556087 78.5317L12.3192 93.4094L10.5116 112.291C10.4268 113.501 11.1356 114.627 12.2636 115.072L30.1446 122.275L38.0422 139.516C38.5581 140.632 39.7455 141.277 40.9621 141.101L59.733 138.32L75.1947 149.444C76.1833 150.185 77.5431 150.185 78.5317 149.444L93.4094 137.681L112.291 139.488C113.494 139.577 114.617 138.881 115.072 137.764L122.275 119.855L139.516 111.958C140.632 111.442 141.276 110.254 141.101 109.038L138.32 90.267L149.444 74.8053C150.185 73.8167 150.185 72.4572 149.444 71.4683ZM133.065 87.9589C132.657 88.5415 132.488 89.2579 132.592 89.9611L135.178 107.759L118.799 115.239C118.151 115.539 117.643 116.077 117.38 116.741L110.734 133.426L92.8254 131.73C92.1166 131.665 91.4103 131.874 90.851 132.314L76.7241 143.437L62.069 133.009C61.5993 132.669 61.0355 132.484 60.456 132.481H60.0667L42.2691 135.067L34.7886 118.715C34.4886 118.067 33.9509 117.559 33.2869 117.297L16.6017 110.651L18.298 92.742C18.363 92.0332 18.1541 91.3268 17.7141 90.7675L6.59058 76.6407L17.0188 61.9855C17.4266 61.4029 17.5959 60.6865 17.4916 59.9833L14.9054 42.1857L31.2847 34.7052C31.9327 34.4052 32.4405 33.8674 32.703 33.2035L39.3492 16.5183L57.258 18.2146C57.9668 18.2796 58.6732 18.0707 59.2325 17.6306L73.3593 6.50715L88.0145 16.9354C88.5971 17.3432 89.3135 17.5124 90.0167 17.4082L107.814 14.822L115.295 31.2013C115.595 31.8492 116.133 32.3571 116.796 32.6195L133.482 39.2658L131.785 57.1746C131.72 57.8834 131.929 58.5897 132.369 59.149L143.493 73.2759L133.065 87.9589Z" fill="#971E00"/>
<path d="M116.247 63.8807C115.818 63.4354 115.253 63.1456 114.642 63.0569V63.1404L88.7501 59.383L77.1685 35.8094C76.4826 34.4338 74.8111 33.8744 73.4348 34.5601C72.8937 34.8297 72.4548 35.2684 72.1851 35.8094L60.6036 59.2717L34.7121 63.029C33.1906 63.2496 32.1358 64.6617 32.3568 66.1831C32.4456 66.7947 32.7355 67.3597 33.1809 67.7883L51.9174 86.046L47.4908 111.818C47.2388 113.335 48.2641 114.768 49.7807 115.02C50.3778 115.119 50.991 115.021 51.5276 114.741L74.6629 102.606L97.826 114.769C99.1884 115.481 100.871 114.954 101.583 113.593C101.864 113.057 101.962 112.443 101.863 111.846L97.4362 86.0739L116.173 67.8161C117.28 66.7502 117.314 64.988 116.247 63.8807ZM92.5085 83.1237C91.8546 83.7586 91.5529 84.6736 91.7011 85.5729L95.4039 107.254L75.9157 97.0118C75.1052 96.5863 74.1371 96.5863 73.3266 97.0118L53.8384 107.254L57.5411 85.5729C57.6894 84.6736 57.3877 83.7586 56.7338 83.1237L40.9762 67.7883L62.7473 64.6154C63.6528 64.4794 64.4333 63.9071 64.8353 63.0847L74.6629 43.4353L84.407 63.1404C84.8089 63.9628 85.5895 64.5351 86.495 64.6711L108.266 67.8439L92.5085 83.1237Z" fill="#971E00"/>
</svg>
