<svg width="121" height="120" viewBox="0 0 121 120" fill="none" xmlns="http://www.w3.org/2000/svg">
<mask id="path-1-inside-1" fill="white">
<path d="M85.1422 93.5337C80.8907 90.9828 76.6392 88.4319 72.3876 86.7313C63.8846 83.33 64.7349 93.5337 58.7827 96.9349C54.5312 99.4859 49.4294 95.2343 46.0281 92.6834C40.076 89.2822 34.9741 84.1803 30.7226 78.2282C28.1717 75.6773 23.0699 69.7251 23.9202 65.4736C24.7705 58.6711 32.4232 58.6712 30.7226 51.0184C28.1717 46.7669 26.4711 42.5153 24.7705 38.2638C23.0699 33.162 21.3692 28.9104 15.4171 29.7607C11.1656 29.7607 7.76434 32.3116 5.21342 35.7129C-2.43934 45.0662 -0.738733 57.8208 4.36311 68.8748C11.1656 84.1803 23.9202 97.7852 36.6748 107.139C45.1778 113.091 57.0821 119.043 67.2858 119.893C74.9386 120.744 85.9925 116.492 88.5435 107.989C88.5435 108.839 88.5434 108.839 87.6931 109.69C87.6931 109.69 87.6931 108.839 88.5435 107.989C88.5435 107.139 88.5434 106.288 89.3938 106.288C89.3938 106.288 89.3938 107.139 88.5435 107.989C91.0944 100.336 91.0944 96.9349 85.1422 93.5337ZM88.5435 109.69C87.6931 109.69 87.6931 109.69 88.5435 109.69V109.69ZM60.4833 0V11.9043C86.8428 11.9043 108.951 33.162 108.951 60.3718H120.855C120.005 26.3595 93.6453 0 60.4833 0ZM60.4833 23.8086V35.7129C74.0882 35.7129 84.2919 46.7669 84.2919 59.5215H96.1962C96.1962 39.9644 80.0404 23.8086 60.4833 23.8086ZM60.4833 47.6172V59.5215H72.3876C72.3876 53.5693 66.4355 47.6172 60.4833 47.6172Z"/>
</mask>
<path d="M85.1422 93.5337L82.5697 97.8212L82.6153 97.8485L82.6615 97.8749L85.1422 93.5337ZM58.7827 96.9349L56.302 92.5937L56.2559 92.6201L56.2103 92.6475L58.7827 96.9349ZM46.0281 92.6834L49.0281 88.6834L48.7791 88.4966L48.5088 88.3422L46.0281 92.6834ZM30.7226 78.2282L34.7913 75.322L34.5508 74.9853L34.2581 74.6927L30.7226 78.2282ZM23.9202 65.4736L28.8231 66.4542L28.8589 66.275L28.8815 66.0938L23.9202 65.4736ZM30.7226 51.0184L35.6035 49.9337L35.4275 49.1417L35.0101 48.4459L30.7226 51.0184ZM24.7705 38.2638L20.027 39.8449L20.0735 39.9843L20.1281 40.1207L24.7705 38.2638ZM15.4171 29.7607V34.7607H15.7724L16.1242 34.7105L15.4171 29.7607ZM5.21342 35.7129L9.0832 38.8791L9.15006 38.7973L9.21342 38.7129L5.21342 35.7129ZM4.36311 68.8748L8.93216 66.8441L8.91776 66.8117L8.9029 66.7795L4.36311 68.8748ZM36.6748 107.139L33.7179 111.171L33.7623 111.203L33.8074 111.235L36.6748 107.139ZM67.2858 119.893L67.838 114.924L67.7696 114.916L67.701 114.91L67.2858 119.893ZM88.5435 107.989H93.5435L83.7543 106.552L88.5435 107.989ZM87.6931 109.69L82.6931 109.69L82.6931 121.761L91.2287 113.225L87.6931 109.69ZM88.5435 107.989L92.079 111.524L93.5435 110.06V107.989H88.5435ZM89.3938 106.288L94.3938 106.288L94.3937 101.288H89.3938V106.288ZM88.5435 107.989L83.8 106.408L92.079 111.524L88.5435 107.989ZM60.4833 0V-5H55.4833V0H60.4833ZM60.4833 11.9043H55.4833V16.9043H60.4833V11.9043ZM108.951 60.3718H103.951V65.3718H108.951V60.3718ZM120.855 60.3718V65.3718H125.982L125.854 60.2468L120.855 60.3718ZM60.4833 23.8086V18.8086H55.4833V23.8086H60.4833ZM60.4833 35.7129H55.4833V40.7129H60.4833V35.7129ZM84.2919 59.5215H79.2919V64.5215H84.2919V59.5215ZM96.1962 59.5215V64.5215H101.196V59.5215H96.1962ZM60.4833 47.6172V42.6172H55.4833V47.6172H60.4833ZM60.4833 59.5215H55.4833V64.5215H60.4833V59.5215ZM72.3876 59.5215V64.5215H77.3876V59.5215H72.3876ZM87.7147 89.2463C83.5417 86.7425 78.9372 83.9659 74.2446 82.0889L70.5307 91.3736C74.3411 92.8978 78.2396 95.2231 82.5697 97.8212L87.7147 89.2463ZM74.2446 82.0889C71.3539 80.9326 68.3421 80.5857 65.4996 81.8351C62.8603 82.9952 61.3147 85.1503 60.3886 86.6322C59.9043 87.4071 59.4529 88.2325 59.0879 88.8911C58.6953 89.5993 58.3656 90.184 58.0205 90.7196C57.3304 91.7908 56.795 92.312 56.302 92.5937L61.2634 101.276C63.7465 99.8572 65.3368 97.8276 66.4271 96.1353C66.9722 95.2891 67.4463 94.4389 67.8343 93.7388C68.2498 92.9891 68.5557 92.4327 68.8686 91.9322C69.5367 90.8631 69.745 90.8924 69.5237 90.9897C69.0993 91.1763 69.1699 90.8293 70.5307 91.3736L74.2446 82.0889ZM56.2103 92.6475C56.2031 92.6518 55.8522 92.9776 54.2362 92.2081C52.5743 91.4167 50.948 90.1233 49.0281 88.6834L43.0281 96.6834C44.5094 97.7944 47.1347 99.9023 49.9369 101.237C52.785 102.593 57.1108 103.769 61.3552 101.222L56.2103 92.6475ZM48.5088 88.3422C43.3453 85.3916 38.7472 80.8602 34.7913 75.322L26.6539 81.1344C31.2011 87.5005 36.8067 93.1728 43.5474 97.0246L48.5088 88.3422ZM34.2581 74.6927C33.1297 73.5642 31.4871 71.7259 30.2642 69.8043C29.6549 68.8467 29.2364 68.0025 29.009 67.3203C28.7735 66.6137 28.8393 66.373 28.8231 66.4542L19.0173 64.493C18.1796 68.6813 20.2646 72.7168 21.8276 75.173C23.5808 77.9281 25.7646 80.3413 27.1871 81.7637L34.2581 74.6927ZM28.8815 66.0938C29.0493 64.7516 29.5856 64.3283 31.8135 62.1004C32.8027 61.1112 34.2255 59.6048 35.1137 57.4683C36.0602 55.1915 36.2155 52.6877 35.6035 49.9337L25.8417 52.103C26.08 53.1755 25.9164 53.5415 25.8798 53.6295C25.7849 53.858 25.5602 54.2116 24.7424 55.0293C23.3565 56.4152 19.6413 59.3931 18.9588 64.8534L28.8815 66.0938ZM35.0101 48.4459C32.6954 44.5881 31.1297 40.6991 29.4128 36.4068L20.1281 40.1207C21.8124 44.3316 23.648 48.9457 26.4351 53.5909L35.0101 48.4459ZM29.5139 36.6827C28.7202 34.3016 27.6073 30.9757 25.4665 28.5056C24.2932 27.1517 22.7674 25.983 20.805 25.2948C18.8687 24.6159 16.8107 24.5109 14.71 24.811L16.1242 34.7105C16.9995 34.5854 17.3862 34.693 17.496 34.7315C17.5796 34.7608 17.7012 34.8144 17.9097 35.0549C18.158 35.3414 18.4788 35.8399 18.8618 36.6991C19.245 37.5587 19.6044 38.5771 20.027 39.8449L29.5139 36.6827ZM15.4171 24.7607C8.95226 24.7607 4.24432 28.6717 1.21342 32.7129L9.21342 38.7129C11.2844 35.9516 13.3789 34.7607 15.4171 34.7607V24.7607ZM1.34363 32.5467C-8.15762 44.1593 -5.54831 59.3316 -0.17669 70.9701L8.9029 66.7795C4.07085 56.3101 3.27893 45.9732 9.0832 38.8791L1.34363 32.5467ZM-0.205951 70.9055C7.04728 87.2253 20.4821 101.464 33.7179 111.171L39.6316 103.107C27.3582 94.1061 15.2838 81.1354 8.93216 66.8441L-0.205951 70.9055ZM33.8074 111.235C42.6053 117.393 55.379 123.918 66.8706 124.876L67.701 114.91C58.7852 114.168 47.7504 108.788 39.5421 103.042L33.8074 111.235ZM66.7336 124.863C71.603 125.404 77.2427 124.331 82.0639 121.921C86.885 119.51 91.5363 115.413 93.3326 109.426L83.7543 106.552C82.9997 109.068 80.8486 111.348 77.5917 112.976C74.335 114.605 70.6214 115.233 67.838 114.924L66.7336 124.863ZM83.5435 107.989C83.5435 108.109 83.5433 108.148 83.5428 108.171C83.5424 108.191 83.543 108.117 83.555 107.996C83.5858 107.688 83.6811 107.171 83.965 106.603C84.0894 106.354 84.2157 106.165 84.3076 106.04C84.3947 105.922 84.4597 105.849 84.4683 105.84C84.4769 105.83 84.463 105.846 84.4027 105.908C84.3427 105.969 84.2691 106.043 84.1576 106.154L91.2287 113.225C91.4034 113.05 91.673 112.783 91.9012 112.529C92.139 112.265 92.5618 111.77 92.9093 111.075C93.6532 109.587 93.5435 108.035 93.5435 107.989H83.5435ZM87.6931 109.69C92.6931 109.69 92.6931 109.692 92.6931 109.694C92.6931 109.695 92.6931 109.698 92.6931 109.699C92.6931 109.703 92.6931 109.706 92.6931 109.709C92.6931 109.715 92.693 109.722 92.693 109.728C92.6929 109.741 92.6927 109.754 92.6925 109.766C92.6921 109.792 92.6915 109.817 92.6908 109.841C92.6892 109.89 92.6868 109.938 92.6837 109.984C92.6776 110.077 92.6684 110.165 92.6562 110.251C92.6319 110.42 92.5949 110.583 92.5429 110.739C92.433 111.069 92.2647 111.339 92.079 111.524L85.0079 104.453C83.972 105.489 83.3785 106.61 83.056 107.577C82.8977 108.052 82.8075 108.481 82.7567 108.836C82.7312 109.015 82.7154 109.176 82.7059 109.319C82.7011 109.39 82.6979 109.457 82.696 109.519C82.695 109.549 82.6943 109.579 82.6938 109.608C82.6936 109.622 82.6934 109.636 82.6933 109.65C82.6933 109.656 82.6932 109.663 82.6932 109.67C82.6932 109.673 82.6932 109.676 82.6932 109.68C82.6932 109.681 82.6931 109.684 82.6931 109.685C82.6931 109.687 82.6931 109.69 87.6931 109.69ZM93.5435 107.989C93.5435 107.876 93.5436 107.809 93.5445 107.751C93.5454 107.696 93.5466 107.683 93.5457 107.697C93.5448 107.71 93.5401 107.778 93.5227 107.885C93.5056 107.989 93.4697 108.171 93.3932 108.401C93.2424 108.853 92.8638 109.688 91.9719 110.381C91.0367 111.109 90.0458 111.288 89.3938 111.288V101.288C88.3166 101.288 87.0068 101.574 85.8325 102.488C84.7014 103.367 84.1634 104.467 83.9063 105.239C83.4875 106.495 83.5435 107.847 83.5435 107.989H93.5435ZM89.3938 106.288C84.3938 106.288 84.3938 106.286 84.3938 106.283C84.3938 106.283 84.3938 106.28 84.3938 106.279C84.3938 106.275 84.3938 106.272 84.3938 106.269C84.3938 106.262 84.3939 106.256 84.3939 106.25C84.394 106.237 84.3942 106.224 84.3944 106.211C84.3948 106.186 84.3954 106.161 84.3961 106.137C84.3977 106.088 84.4001 106.04 84.4032 105.994C84.4093 105.901 84.4185 105.813 84.4307 105.727C84.455 105.558 84.492 105.395 84.5441 105.239C84.6539 104.909 84.8223 104.639 85.0079 104.453L92.079 111.524C93.115 110.488 93.7084 109.368 94.0309 108.401C94.1892 107.926 94.2794 107.497 94.3302 107.142C94.3557 106.963 94.3715 106.802 94.381 106.659C94.3858 106.588 94.389 106.521 94.391 106.459C94.3919 106.428 94.3926 106.399 94.3931 106.37C94.3933 106.356 94.3935 106.342 94.3936 106.328C94.3937 106.321 94.3937 106.315 94.3937 106.308C94.3937 106.305 94.3937 106.301 94.3937 106.298C94.3938 106.296 94.3938 106.294 94.3938 106.293C94.3938 106.291 94.3938 106.288 89.3938 106.288ZM93.2869 109.57C94.5283 105.846 95.6433 101.907 94.9432 98.2314C94.1268 93.9454 91.1951 91.2338 87.6229 89.1925L82.6615 97.8749C85.0415 99.2349 85.0859 99.9245 85.1198 100.103C85.27 100.891 85.1095 102.479 83.8 106.408L93.2869 109.57ZM88.5435 104.69C88.5418 104.69 88.5401 104.69 88.5385 104.69C88.5368 104.69 88.5352 104.69 88.5335 104.69C88.5319 104.69 88.5302 104.69 88.5286 104.69C88.527 104.69 88.5253 104.69 88.5237 104.69C88.522 104.69 88.5204 104.69 88.5188 104.69C88.5172 104.69 88.5155 104.69 88.5139 104.69C88.5123 104.69 88.5107 104.69 88.5091 104.69C88.5074 104.69 88.5058 104.69 88.5042 104.69C88.5026 104.69 88.501 104.69 88.4994 104.69C88.4978 104.69 88.4962 104.69 88.4946 104.69C88.493 104.69 88.4914 104.69 88.4898 104.69C88.4882 104.69 88.4867 104.69 88.4851 104.69C88.4835 104.69 88.4819 104.69 88.4803 104.69C88.4788 104.69 88.4772 104.69 88.4756 104.69C88.474 104.69 88.4725 104.69 88.4709 104.69C88.4693 104.69 88.4678 104.69 88.4662 104.69C88.4647 104.69 88.4631 104.69 88.4616 104.69C88.46 104.69 88.4585 104.69 88.4569 104.69C88.4554 104.69 88.4538 104.69 88.4523 104.69C88.4508 104.69 88.4492 104.69 88.4477 104.69C88.4462 104.69 88.4446 104.69 88.4431 104.69C88.4416 104.69 88.4401 104.69 88.4386 104.69C88.437 104.69 88.4355 104.69 88.434 104.69C88.4325 104.69 88.431 104.69 88.4295 104.69C88.428 104.69 88.4265 104.69 88.425 104.69C88.4235 104.69 88.422 104.69 88.4205 104.69C88.419 104.69 88.4175 104.69 88.416 104.69C88.4145 104.69 88.4131 104.69 88.4116 104.69C88.4101 104.69 88.4086 104.69 88.4072 104.69C88.4057 104.69 88.4042 104.69 88.4027 104.69C88.4013 104.69 88.3998 104.69 88.3984 104.69C88.3969 104.69 88.3954 104.69 88.394 104.69C88.3925 104.69 88.3911 104.69 88.3896 104.69C88.3882 104.69 88.3867 104.69 88.3853 104.69C88.3839 104.69 88.3824 104.69 88.381 104.69C88.3796 104.69 88.3781 104.69 88.3767 104.69C88.3753 104.69 88.3739 104.69 88.3724 104.69C88.371 104.69 88.3696 104.69 88.3682 104.69C88.3668 104.69 88.3654 104.69 88.3639 104.69C88.3625 104.69 88.3611 104.69 88.3597 104.69C88.3583 104.69 88.3569 104.69 88.3555 104.69C88.3541 104.69 88.3528 104.69 88.3514 104.69C88.35 104.69 88.3486 104.69 88.3472 104.69C88.3458 104.69 88.3445 104.69 88.3431 104.69C88.3417 104.69 88.3403 104.69 88.339 104.69C88.3376 104.69 88.3362 104.69 88.3349 104.69C88.3335 104.69 88.3321 104.69 88.3308 104.69C88.3294 104.69 88.3281 104.69 88.3267 104.69C88.3254 104.69 88.324 104.69 88.3227 104.69C88.3213 104.69 88.32 104.69 88.3187 104.69C88.3173 104.69 88.316 104.69 88.3147 104.69C88.3133 104.69 88.312 104.69 88.3107 104.69C88.3094 104.69 88.308 104.69 88.3067 104.69C88.3054 104.69 88.3041 104.69 88.3028 104.69C88.3015 104.69 88.3002 104.69 88.2989 104.69C88.2976 104.69 88.2963 104.69 88.295 104.69C88.2937 104.69 88.2924 104.69 88.2911 104.69C88.2898 104.69 88.2885 104.69 88.2872 104.69C88.2859 104.69 88.2847 104.69 88.2834 104.69C88.2821 104.69 88.2808 104.69 88.2795 104.69C88.2783 104.69 88.277 104.69 88.2757 104.69C88.2745 104.69 88.2732 104.69 88.272 104.69C88.2707 104.69 88.2694 104.69 88.2682 104.69C88.2669 104.69 88.2657 104.69 88.2645 104.69C88.2632 104.69 88.262 104.69 88.2607 104.69C88.2595 104.69 88.2582 104.69 88.257 104.69C88.2558 104.69 88.2546 104.69 88.2533 104.69C88.2521 104.69 88.2509 104.69 88.2497 104.69C88.2484 104.69 88.2472 104.69 88.246 104.69C88.2448 104.69 88.2436 104.69 88.2424 104.69C88.2412 104.69 88.24 104.69 88.2388 104.69C88.2376 104.69 88.2364 104.69 88.2352 104.69C88.234 104.69 88.2328 104.69 88.2316 104.69C88.2304 104.69 88.2292 104.69 88.2281 104.69C88.2269 104.69 88.2257 104.69 88.2245 104.69C88.2234 104.69 88.2222 104.69 88.221 104.69C88.2198 104.69 88.2187 104.69 88.2175 104.69C88.2164 104.69 88.2152 104.69 88.214 104.69C88.2129 104.69 88.2117 104.69 88.2106 104.69C88.2094 104.69 88.2083 104.69 88.2072 104.69C88.206 104.69 88.2049 104.69 88.2037 104.69C88.2026 104.69 88.2015 104.69 88.2003 104.69C88.1992 104.69 88.1981 104.69 88.197 104.69C88.1958 104.69 88.1947 104.69 88.1936 104.69C88.1925 104.69 88.1914 104.69 88.1903 104.69C88.1892 104.69 88.1881 104.69 88.187 104.69C88.1859 104.69 88.1847 104.69 88.1837 104.69C88.1826 104.69 88.1815 104.69 88.1804 104.69C88.1793 104.69 88.1782 104.69 88.1771 104.69C88.176 104.69 88.1749 104.69 88.1739 104.69C88.1728 104.69 88.1717 104.69 88.1707 104.69C88.1696 104.69 88.1685 104.69 88.1674 104.69C88.1664 104.69 88.1653 104.69 88.1643 104.69C88.1632 104.69 88.1622 104.69 88.1611 104.69C88.1601 104.69 88.159 104.69 88.158 104.69C88.1569 104.69 88.1559 104.69 88.1548 104.69C88.1538 104.69 88.1528 104.69 88.1517 104.69C88.1507 104.69 88.1497 104.69 88.1487 104.69C88.1476 104.69 88.1466 104.69 88.1456 104.69C88.1446 104.69 88.1436 104.69 88.1425 104.69C88.1415 104.69 88.1405 104.69 88.1395 104.69C88.1385 104.69 88.1375 104.69 88.1365 104.69C88.1355 104.69 88.1345 104.69 88.1335 104.69C88.1325 104.69 88.1315 104.69 88.1306 104.69C88.1296 104.69 88.1286 104.69 88.1276 104.69C88.1266 104.69 88.1256 104.69 88.1247 104.69C88.1237 104.69 88.1227 104.69 88.1218 104.69C88.1208 104.69 88.1198 104.69 88.1189 104.69C88.1179 104.69 88.117 104.69 88.116 104.69C88.1151 104.69 88.1141 104.69 88.1132 104.69C88.1122 104.69 88.1113 104.69 88.1103 104.69C88.1094 104.69 88.1084 104.69 88.1075 104.69C88.1066 104.69 88.1056 104.69 88.1047 104.69C88.1038 104.69 88.1029 104.69 88.1019 104.69C88.101 104.69 88.1001 104.69 88.0992 104.69C88.0983 104.69 88.0974 104.69 88.0965 104.69C88.0955 104.69 88.0946 104.69 88.0937 104.69C88.0928 104.69 88.0919 104.69 88.091 104.69C88.0901 104.69 88.0893 104.69 88.0884 104.69C88.0875 104.69 88.0866 104.69 88.0857 104.69C88.0848 104.69 88.0839 104.69 88.0831 104.69C88.0822 104.69 88.0813 104.69 88.0805 104.69C88.0796 104.69 88.0787 104.69 88.0779 104.69C88.077 104.69 88.0761 104.69 88.0753 104.69C88.0744 104.69 88.0736 104.69 88.0727 104.69C88.0719 104.69 88.071 104.69 88.0702 104.69C88.0693 104.69 88.0685 104.69 88.0677 104.69C88.0668 104.69 88.066 104.69 88.0652 104.69C88.0643 104.69 88.0635 104.69 88.0627 104.69C88.0619 104.69 88.061 104.69 88.0602 104.69C88.0594 104.69 88.0586 104.69 88.0578 104.69C88.057 104.69 88.0562 104.69 88.0554 104.69C88.0545 104.69 88.0537 104.69 88.0529 104.69C88.0521 104.69 88.0514 104.69 88.0506 104.69C88.0498 104.69 88.049 104.69 88.0482 104.69C88.0474 104.69 88.0466 104.69 88.0459 104.69C88.0451 104.69 88.0443 104.69 88.0435 104.69C88.0428 104.69 88.042 104.69 88.0412 104.69C88.0405 104.69 88.0397 104.69 88.0389 104.69C88.0382 104.69 88.0374 104.69 88.0367 104.69C88.0359 104.69 88.0352 104.69 88.0344 104.69C88.0337 104.69 88.0329 104.69 88.0322 104.69C88.0314 104.69 88.0307 104.69 88.03 104.69C88.0293 104.69 88.0285 104.69 88.0278 104.69C88.0271 104.69 88.0263 104.69 88.0256 104.69C88.0249 104.69 88.0242 104.69 88.0235 104.69C88.0228 104.69 88.022 104.69 88.0213 104.69C88.0206 104.69 88.0199 104.69 88.0192 104.69C88.0185 104.69 88.0178 104.69 88.0171 104.69C88.0164 104.69 88.0158 104.69 88.0151 104.69C88.0144 104.69 88.0137 104.69 88.013 104.69C88.0123 104.69 88.0117 104.69 88.011 104.69C88.0103 104.69 88.0096 104.69 88.009 104.69C88.0083 104.69 88.0076 104.69 88.007 104.69C88.0063 104.69 88.0056 104.69 88.005 104.69C88.0043 104.69 88.0037 104.69 88.003 104.69C88.0024 104.69 88.0017 104.69 88.0011 104.69C88.0005 104.69 87.9998 104.69 87.9992 104.69C87.9986 104.69 87.9979 104.69 87.9973 104.69C87.9967 104.69 87.996 104.69 87.9954 104.69C87.9948 104.69 87.9942 104.69 87.9935 104.69C87.9929 104.69 87.9923 104.69 87.9917 104.69C87.9911 104.69 87.9905 104.69 87.9899 104.69C87.9893 104.69 87.9887 104.69 87.9881 104.69C87.9875 104.69 87.9869 104.69 87.9863 104.69C87.9857 104.69 87.9851 104.69 87.9846 104.69C87.984 104.69 87.9834 104.69 87.9828 104.69C87.9822 104.69 87.9817 104.69 87.9811 104.69C87.9805 104.69 87.9799 104.69 87.9794 104.69C87.9788 104.69 87.9783 104.69 87.9777 104.69C87.9771 104.69 87.9766 104.69 87.976 104.69C87.9755 104.69 87.9749 104.69 87.9744 104.69C87.9738 104.69 87.9733 104.69 87.9728 104.69C87.9722 104.69 87.9717 104.69 87.9712 104.69C87.9706 104.69 87.9701 104.69 87.9696 104.69C87.969 104.69 87.9685 104.69 87.968 104.69C87.9675 104.69 87.967 104.69 87.9665 104.69C87.9659 104.69 87.9654 104.69 87.9649 104.69C87.9644 104.69 87.9639 104.69 87.9634 104.69C87.9629 104.69 87.9624 104.69 87.9619 104.69C87.9614 104.69 87.961 104.69 87.9605 104.69C87.96 104.69 87.9595 104.69 87.959 104.69C87.9585 104.69 87.9581 104.69 87.9576 104.69C87.9571 104.69 87.9566 104.69 87.9562 104.69C87.9557 104.69 87.9552 104.69 87.9548 104.69C87.9543 104.69 87.9539 104.69 87.9534 104.69C87.953 104.69 87.9525 104.69 87.9521 104.69C87.9516 104.69 87.9512 104.69 87.9507 104.69C87.9503 104.69 87.9498 104.69 87.9494 104.69C87.949 104.69 87.9485 104.69 87.9481 104.69C87.9477 104.69 87.9473 104.69 87.9468 104.69C87.9464 104.69 87.946 104.69 87.9456 104.69C87.9452 104.69 87.9448 104.69 87.9444 104.69C87.9439 104.69 87.9435 104.69 87.9431 104.69C87.9427 104.69 87.9423 104.69 87.9419 104.69C87.9415 104.69 87.9411 104.69 87.9408 104.69C87.9404 104.69 87.94 104.69 87.9396 104.69C87.9392 104.69 87.9388 104.69 87.9385 104.69C87.9381 104.69 87.9377 104.69 87.9373 104.69C87.937 104.69 87.9366 104.69 87.9362 104.69C87.9359 104.69 87.9355 104.69 87.9352 104.69C87.9348 104.69 87.9344 104.69 87.9341 104.69C87.9338 104.69 87.9334 104.69 87.9331 104.69C87.9327 104.69 87.9324 104.69 87.932 104.69C87.9317 104.69 87.9314 104.69 87.931 104.69C87.9307 104.69 87.9304 104.69 87.9301 104.69C87.9297 104.69 87.9294 104.69 87.9291 104.69C87.9288 104.69 87.9285 104.69 87.9281 104.69C87.9278 104.69 87.9275 104.69 87.9272 104.69C87.9269 104.69 87.9266 104.69 87.9263 104.69C87.926 104.69 87.9257 104.69 87.9254 104.69C87.9251 104.69 87.9249 104.69 87.9246 104.69C87.9243 104.69 87.924 104.69 87.9237 104.69C87.9234 104.69 87.9232 104.69 87.9229 104.69C87.9226 104.69 87.9223 104.69 87.9221 104.69C87.9218 104.69 87.9216 104.69 87.9213 104.69C87.921 104.69 87.9208 104.69 87.9205 104.69C87.9203 104.69 87.92 104.69 87.9198 104.69C87.9195 104.69 87.9193 104.69 87.919 104.69C87.9188 104.69 87.9186 104.69 87.9183 104.69C87.9181 104.69 87.9179 104.69 87.9176 104.69C87.9174 104.69 87.9172 104.69 87.917 104.69C87.9168 104.69 87.9165 104.69 87.9163 104.69C87.9161 104.69 87.9159 104.69 87.9157 104.69C87.9155 104.69 87.9153 104.69 87.9151 104.69C87.9149 104.69 87.9147 104.69 87.9145 104.69C87.9143 104.69 87.9141 104.69 87.9139 104.69C87.9137 104.69 87.9135 104.69 87.9134 104.69C87.9132 104.69 87.913 104.69 87.9128 104.69C87.9126 104.69 87.9125 104.69 87.9123 104.69C87.9121 104.69 87.912 104.69 87.9118 104.69C87.9116 104.69 87.9115 104.69 87.9113 104.69C87.9112 104.69 87.911 104.69 87.9109 104.69C87.9107 104.69 87.9106 104.69 87.9104 104.69C87.9103 104.69 87.9102 104.69 87.91 104.69C87.9099 104.69 87.9098 104.69 87.9096 104.69C87.9095 104.69 87.9094 104.69 87.9092 104.69C87.9091 104.69 87.909 104.69 87.9089 104.69C87.9088 104.69 87.9086 104.69 87.9085 104.69C87.9084 104.69 87.9083 104.69 87.9082 104.69C87.9081 104.69 87.908 104.69 87.9079 104.69C87.9078 104.69 87.9077 104.69 87.9076 104.69C87.9075 104.69 87.9075 104.69 87.9074 104.69C87.9073 104.69 87.9072 104.69 87.9071 104.69C87.9071 104.69 87.907 104.69 87.9069 104.69C87.9068 104.69 87.9068 104.69 87.9067 104.69C87.9066 104.69 87.9066 104.69 87.9065 104.69C87.9065 104.69 87.9064 104.69 87.9063 104.69C87.9063 104.69 87.9062 104.69 87.9062 104.69C87.9062 104.69 87.9061 104.69 87.9061 104.69C87.906 104.69 87.906 104.69 87.906 104.69C87.9059 104.69 87.9059 104.69 87.9059 104.69C87.9059 104.69 87.9058 104.69 87.9058 104.69C87.9058 104.69 87.9058 104.69 87.9058 104.69C87.9058 104.69 87.9057 104.69 87.9057 104.69C87.9057 104.69 87.9057 104.69 87.9057 109.69C87.9057 114.69 87.9057 114.69 87.9057 114.69C87.9057 114.69 87.9058 114.69 87.9058 114.69C87.9058 114.69 87.9058 114.69 87.9058 114.69C87.9058 114.69 87.9059 114.69 87.9059 114.69C87.9059 114.69 87.9059 114.69 87.906 114.69C87.906 114.69 87.906 114.69 87.9061 114.69C87.9061 114.69 87.9062 114.69 87.9062 114.69C87.9062 114.69 87.9063 114.69 87.9063 114.69C87.9064 114.69 87.9065 114.69 87.9065 114.69C87.9066 114.69 87.9066 114.69 87.9067 114.69C87.9068 114.69 87.9068 114.69 87.9069 114.69C87.907 114.69 87.9071 114.69 87.9071 114.69C87.9072 114.69 87.9073 114.69 87.9074 114.69C87.9075 114.69 87.9075 114.69 87.9076 114.69C87.9077 114.69 87.9078 114.69 87.9079 114.69C87.908 114.69 87.9081 114.69 87.9082 114.69C87.9083 114.69 87.9084 114.69 87.9085 114.69C87.9086 114.69 87.9088 114.69 87.9089 114.69C87.909 114.69 87.9091 114.69 87.9092 114.69C87.9094 114.69 87.9095 114.69 87.9096 114.69C87.9098 114.69 87.9099 114.69 87.91 114.69C87.9102 114.69 87.9103 114.69 87.9104 114.69C87.9106 114.69 87.9107 114.69 87.9109 114.69C87.911 114.69 87.9112 114.69 87.9113 114.69C87.9115 114.69 87.9116 114.69 87.9118 114.69C87.912 114.69 87.9121 114.69 87.9123 114.69C87.9125 114.69 87.9126 114.69 87.9128 114.69C87.913 114.69 87.9132 114.69 87.9134 114.69C87.9135 114.69 87.9137 114.69 87.9139 114.69C87.9141 114.69 87.9143 114.69 87.9145 114.69C87.9147 114.69 87.9149 114.69 87.9151 114.69C87.9153 114.69 87.9155 114.69 87.9157 114.69C87.9159 114.69 87.9161 114.69 87.9163 114.69C87.9165 114.69 87.9168 114.69 87.917 114.69C87.9172 114.69 87.9174 114.69 87.9176 114.69C87.9179 114.69 87.9181 114.69 87.9183 114.69C87.9186 114.69 87.9188 114.69 87.919 114.69C87.9193 114.69 87.9195 114.69 87.9198 114.69C87.92 114.69 87.9203 114.69 87.9205 114.69C87.9208 114.69 87.921 114.69 87.9213 114.69C87.9216 114.69 87.9218 114.69 87.9221 114.69C87.9223 114.69 87.9226 114.69 87.9229 114.69C87.9232 114.69 87.9234 114.69 87.9237 114.69C87.924 114.69 87.9243 114.69 87.9246 114.69C87.9249 114.69 87.9251 114.69 87.9254 114.69C87.9257 114.69 87.926 114.69 87.9263 114.69C87.9266 114.69 87.9269 114.69 87.9272 114.69C87.9275 114.69 87.9278 114.69 87.9281 114.69C87.9285 114.69 87.9288 114.69 87.9291 114.69C87.9294 114.69 87.9297 114.69 87.9301 114.69C87.9304 114.69 87.9307 114.69 87.931 114.69C87.9314 114.69 87.9317 114.69 87.932 114.69C87.9324 114.69 87.9327 114.69 87.9331 114.69C87.9334 114.69 87.9338 114.69 87.9341 114.69C87.9344 114.69 87.9348 114.69 87.9352 114.69C87.9355 114.69 87.9359 114.69 87.9362 114.69C87.9366 114.69 87.937 114.69 87.9373 114.69C87.9377 114.69 87.9381 114.69 87.9385 114.69C87.9388 114.69 87.9392 114.69 87.9396 114.69C87.94 114.69 87.9404 114.69 87.9408 114.69C87.9411 114.69 87.9415 114.69 87.9419 114.69C87.9423 114.69 87.9427 114.69 87.9431 114.69C87.9435 114.69 87.9439 114.69 87.9444 114.69C87.9448 114.69 87.9452 114.69 87.9456 114.69C87.946 114.69 87.9464 114.69 87.9468 114.69C87.9473 114.69 87.9477 114.69 87.9481 114.69C87.9485 114.69 87.949 114.69 87.9494 114.69C87.9498 114.69 87.9503 114.69 87.9507 114.69C87.9512 114.69 87.9516 114.69 87.9521 114.69C87.9525 114.69 87.953 114.69 87.9534 114.69C87.9539 114.69 87.9543 114.69 87.9548 114.69C87.9552 114.69 87.9557 114.69 87.9562 114.69C87.9566 114.69 87.9571 114.69 87.9576 114.69C87.9581 114.69 87.9585 114.69 87.959 114.69C87.9595 114.69 87.96 114.69 87.9605 114.69C87.961 114.69 87.9614 114.69 87.9619 114.69C87.9624 114.69 87.9629 114.69 87.9634 114.69C87.9639 114.69 87.9644 114.69 87.9649 114.69C87.9654 114.69 87.9659 114.69 87.9665 114.69C87.967 114.69 87.9675 114.69 87.968 114.69C87.9685 114.69 87.969 114.69 87.9696 114.69C87.9701 114.69 87.9706 114.69 87.9712 114.69C87.9717 114.69 87.9722 114.69 87.9728 114.69C87.9733 114.69 87.9738 114.69 87.9744 114.69C87.9749 114.69 87.9755 114.69 87.976 114.69C87.9766 114.69 87.9771 114.69 87.9777 114.69C87.9783 114.69 87.9788 114.69 87.9794 114.69C87.9799 114.69 87.9805 114.69 87.9811 114.69C87.9817 114.69 87.9822 114.69 87.9828 114.69C87.9834 114.69 87.984 114.69 87.9846 114.69C87.9851 114.69 87.9857 114.69 87.9863 114.69C87.9869 114.69 87.9875 114.69 87.9881 114.69C87.9887 114.69 87.9893 114.69 87.9899 114.69C87.9905 114.69 87.9911 114.69 87.9917 114.69C87.9923 114.69 87.9929 114.69 87.9935 114.69C87.9942 114.69 87.9948 114.69 87.9954 114.69C87.996 114.69 87.9967 114.69 87.9973 114.69C87.9979 114.69 87.9986 114.69 87.9992 114.69C87.9998 114.69 88.0005 114.69 88.0011 114.69C88.0017 114.69 88.0024 114.69 88.003 114.69C88.0037 114.69 88.0043 114.69 88.005 114.69C88.0056 114.69 88.0063 114.69 88.007 114.69C88.0076 114.69 88.0083 114.69 88.009 114.69C88.0096 114.69 88.0103 114.69 88.011 114.69C88.0117 114.69 88.0123 114.69 88.013 114.69C88.0137 114.69 88.0144 114.69 88.0151 114.69C88.0158 114.69 88.0164 114.69 88.0171 114.69C88.0178 114.69 88.0185 114.69 88.0192 114.69C88.0199 114.69 88.0206 114.69 88.0213 114.69C88.022 114.69 88.0228 114.69 88.0235 114.69C88.0242 114.69 88.0249 114.69 88.0256 114.69C88.0263 114.69 88.0271 114.69 88.0278 114.69C88.0285 114.69 88.0293 114.69 88.03 114.69C88.0307 114.69 88.0314 114.69 88.0322 114.69C88.0329 114.69 88.0337 114.69 88.0344 114.69C88.0352 114.69 88.0359 114.69 88.0367 114.69C88.0374 114.69 88.0382 114.69 88.0389 114.69C88.0397 114.69 88.0405 114.69 88.0412 114.69C88.042 114.69 88.0428 114.69 88.0435 114.69C88.0443 114.69 88.0451 114.69 88.0459 114.69C88.0466 114.69 88.0474 114.69 88.0482 114.69C88.049 114.69 88.0498 114.69 88.0506 114.69C88.0514 114.69 88.0521 114.69 88.0529 114.69C88.0537 114.69 88.0545 114.69 88.0554 114.69C88.0562 114.69 88.057 114.69 88.0578 114.69C88.0586 114.69 88.0594 114.69 88.0602 114.69C88.061 114.69 88.0619 114.69 88.0627 114.69C88.0635 114.69 88.0643 114.69 88.0652 114.69C88.066 114.69 88.0668 114.69 88.0677 114.69C88.0685 114.69 88.0693 114.69 88.0702 114.69C88.071 114.69 88.0719 114.69 88.0727 114.69C88.0736 114.69 88.0744 114.69 88.0753 114.69C88.0761 114.69 88.077 114.69 88.0779 114.69C88.0787 114.69 88.0796 114.69 88.0805 114.69C88.0813 114.69 88.0822 114.69 88.0831 114.69C88.0839 114.69 88.0848 114.69 88.0857 114.69C88.0866 114.69 88.0875 114.69 88.0884 114.69C88.0893 114.69 88.0901 114.69 88.091 114.69C88.0919 114.69 88.0928 114.69 88.0937 114.69C88.0946 114.69 88.0955 114.69 88.0965 114.69C88.0974 114.69 88.0983 114.69 88.0992 114.69C88.1001 114.69 88.101 114.69 88.1019 114.69C88.1029 114.69 88.1038 114.69 88.1047 114.69C88.1056 114.69 88.1066 114.69 88.1075 114.69C88.1084 114.69 88.1094 114.69 88.1103 114.69C88.1113 114.69 88.1122 114.69 88.1132 114.69C88.1141 114.69 88.1151 114.69 88.116 114.69C88.117 114.69 88.1179 114.69 88.1189 114.69C88.1198 114.69 88.1208 114.69 88.1218 114.69C88.1227 114.69 88.1237 114.69 88.1247 114.69C88.1256 114.69 88.1266 114.69 88.1276 114.69C88.1286 114.69 88.1296 114.69 88.1306 114.69C88.1315 114.69 88.1325 114.69 88.1335 114.69C88.1345 114.69 88.1355 114.69 88.1365 114.69C88.1375 114.69 88.1385 114.69 88.1395 114.69C88.1405 114.69 88.1415 114.69 88.1425 114.69C88.1436 114.69 88.1446 114.69 88.1456 114.69C88.1466 114.69 88.1476 114.69 88.1487 114.69C88.1497 114.69 88.1507 114.69 88.1517 114.69C88.1528 114.69 88.1538 114.69 88.1548 114.69C88.1559 114.69 88.1569 114.69 88.158 114.69C88.159 114.69 88.1601 114.69 88.1611 114.69C88.1622 114.69 88.1632 114.69 88.1643 114.69C88.1653 114.69 88.1664 114.69 88.1674 114.69C88.1685 114.69 88.1696 114.69 88.1707 114.69C88.1717 114.69 88.1728 114.69 88.1739 114.69C88.1749 114.69 88.176 114.69 88.1771 114.69C88.1782 114.69 88.1793 114.69 88.1804 114.69C88.1815 114.69 88.1826 114.69 88.1837 114.69C88.1847 114.69 88.1859 114.69 88.187 114.69C88.1881 114.69 88.1892 114.69 88.1903 114.69C88.1914 114.69 88.1925 114.69 88.1936 114.69C88.1947 114.69 88.1958 114.69 88.197 114.69C88.1981 114.69 88.1992 114.69 88.2003 114.69C88.2015 114.69 88.2026 114.69 88.2037 114.69C88.2049 114.69 88.206 114.69 88.2072 114.69C88.2083 114.69 88.2094 114.69 88.2106 114.69C88.2117 114.69 88.2129 114.69 88.214 114.69C88.2152 114.69 88.2164 114.69 88.2175 114.69C88.2187 114.69 88.2198 114.69 88.221 114.69C88.2222 114.69 88.2234 114.69 88.2245 114.69C88.2257 114.69 88.2269 114.69 88.2281 114.69C88.2292 114.69 88.2304 114.69 88.2316 114.69C88.2328 114.69 88.234 114.69 88.2352 114.69C88.2364 114.69 88.2376 114.69 88.2388 114.69C88.24 114.69 88.2412 114.69 88.2424 114.69C88.2436 114.69 88.2448 114.69 88.246 114.69C88.2472 114.69 88.2484 114.69 88.2497 114.69C88.2509 114.69 88.2521 114.69 88.2533 114.69C88.2546 114.69 88.2558 114.69 88.257 114.69C88.2582 114.69 88.2595 114.69 88.2607 114.69C88.262 114.69 88.2632 114.69 88.2645 114.69C88.2657 114.69 88.2669 114.69 88.2682 114.69C88.2694 114.69 88.2707 114.69 88.272 114.69C88.2732 114.69 88.2745 114.69 88.2757 114.69C88.277 114.69 88.2783 114.69 88.2795 114.69C88.2808 114.69 88.2821 114.69 88.2834 114.69C88.2847 114.69 88.2859 114.69 88.2872 114.69C88.2885 114.69 88.2898 114.69 88.2911 114.69C88.2924 114.69 88.2937 114.69 88.295 114.69C88.2963 114.69 88.2976 114.69 88.2989 114.69C88.3002 114.69 88.3015 114.69 88.3028 114.69C88.3041 114.69 88.3054 114.69 88.3067 114.69C88.308 114.69 88.3094 114.69 88.3107 114.69C88.312 114.69 88.3133 114.69 88.3147 114.69C88.316 114.69 88.3173 114.69 88.3187 114.69C88.32 114.69 88.3213 114.69 88.3227 114.69C88.324 114.69 88.3254 114.69 88.3267 114.69C88.3281 114.69 88.3294 114.69 88.3308 114.69C88.3321 114.69 88.3335 114.69 88.3349 114.69C88.3362 114.69 88.3376 114.69 88.339 114.69C88.3403 114.69 88.3417 114.69 88.3431 114.69C88.3445 114.69 88.3458 114.69 88.3472 114.69C88.3486 114.69 88.35 114.69 88.3514 114.69C88.3528 114.69 88.3541 114.69 88.3555 114.69C88.3569 114.69 88.3583 114.69 88.3597 114.69C88.3611 114.69 88.3625 114.69 88.3639 114.69C88.3654 114.69 88.3668 114.69 88.3682 114.69C88.3696 114.69 88.371 114.69 88.3724 114.69C88.3739 114.69 88.3753 114.69 88.3767 114.69C88.3781 114.69 88.3796 114.69 88.381 114.69C88.3824 114.69 88.3839 114.69 88.3853 114.69C88.3867 114.69 88.3882 114.69 88.3896 114.69C88.3911 114.69 88.3925 114.69 88.394 114.69C88.3954 114.69 88.3969 114.69 88.3984 114.69C88.3998 114.69 88.4013 114.69 88.4027 114.69C88.4042 114.69 88.4057 114.69 88.4072 114.69C88.4086 114.69 88.4101 114.69 88.4116 114.69C88.4131 114.69 88.4145 114.69 88.416 114.69C88.4175 114.69 88.419 114.69 88.4205 114.69C88.422 114.69 88.4235 114.69 88.425 114.69C88.4265 114.69 88.428 114.69 88.4295 114.69C88.431 114.69 88.4325 114.69 88.434 114.69C88.4355 114.69 88.437 114.69 88.4386 114.69C88.4401 114.69 88.4416 114.69 88.4431 114.69C88.4446 114.69 88.4462 114.69 88.4477 114.69C88.4492 114.69 88.4508 114.69 88.4523 114.69C88.4538 114.69 88.4554 114.69 88.4569 114.69C88.4585 114.69 88.46 114.69 88.4616 114.69C88.4631 114.69 88.4647 114.69 88.4662 114.69C88.4678 114.69 88.4693 114.69 88.4709 114.69C88.4725 114.69 88.474 114.69 88.4756 114.69C88.4772 114.69 88.4788 114.69 88.4803 114.69C88.4819 114.69 88.4835 114.69 88.4851 114.69C88.4867 114.69 88.4882 114.69 88.4898 114.69C88.4914 114.69 88.493 114.69 88.4946 114.69C88.4962 114.69 88.4978 114.69 88.4994 114.69C88.501 114.69 88.5026 114.69 88.5042 114.69C88.5058 114.69 88.5074 114.69 88.5091 114.69C88.5107 114.69 88.5123 114.69 88.5139 114.69C88.5155 114.69 88.5172 114.69 88.5188 114.69C88.5204 114.69 88.522 114.69 88.5237 114.69C88.5253 114.69 88.527 114.69 88.5286 114.69C88.5302 114.69 88.5319 114.69 88.5335 114.69C88.5352 114.69 88.5368 114.69 88.5385 114.69C88.5401 114.69 88.5418 114.69 88.5435 114.69V104.69C88.5418 104.69 88.5401 104.69 88.5385 104.69C88.5368 104.69 88.5352 104.69 88.5335 104.69C88.5319 104.69 88.5302 104.69 88.5286 104.69C88.527 104.69 88.5253 104.69 88.5237 104.69C88.522 104.69 88.5204 104.69 88.5188 104.69C88.5172 104.69 88.5155 104.69 88.5139 104.69C88.5123 104.69 88.5107 104.69 88.5091 104.69C88.5074 104.69 88.5058 104.69 88.5042 104.69C88.5026 104.69 88.501 104.69 88.4994 104.69C88.4978 104.69 88.4962 104.69 88.4946 104.69C88.493 104.69 88.4914 104.69 88.4898 104.69C88.4882 104.69 88.4867 104.69 88.4851 104.69C88.4835 104.69 88.4819 104.69 88.4803 104.69C88.4788 104.69 88.4772 104.69 88.4756 104.69C88.474 104.69 88.4725 104.69 88.4709 104.69C88.4693 104.69 88.4678 104.69 88.4662 104.69C88.4647 104.69 88.4631 104.69 88.4616 104.69C88.46 104.69 88.4585 104.69 88.4569 104.69C88.4554 104.69 88.4538 104.69 88.4523 104.69C88.4508 104.69 88.4492 104.69 88.4477 104.69C88.4462 104.69 88.4446 104.69 88.4431 104.69C88.4416 104.69 88.4401 104.69 88.4386 104.69C88.437 104.69 88.4355 104.69 88.434 104.69C88.4325 104.69 88.431 104.69 88.4295 104.69C88.428 104.69 88.4265 104.69 88.425 104.69C88.4235 104.69 88.422 104.69 88.4205 104.69C88.419 104.69 88.4175 104.69 88.416 104.69C88.4145 104.69 88.4131 104.69 88.4116 104.69C88.4101 104.69 88.4086 104.69 88.4072 104.69C88.4057 104.69 88.4042 104.69 88.4027 104.69C88.4013 104.69 88.3998 104.69 88.3984 104.69C88.3969 104.69 88.3954 104.69 88.394 104.69C88.3925 104.69 88.3911 104.69 88.3896 104.69C88.3882 104.69 88.3867 104.69 88.3853 104.69C88.3839 104.69 88.3824 104.69 88.381 104.69C88.3796 104.69 88.3781 104.69 88.3767 104.69C88.3753 104.69 88.3739 104.69 88.3724 104.69C88.371 104.69 88.3696 104.69 88.3682 104.69C88.3668 104.69 88.3654 104.69 88.3639 104.69C88.3625 104.69 88.3611 104.69 88.3597 104.69C88.3583 104.69 88.3569 104.69 88.3555 104.69C88.3541 104.69 88.3528 104.69 88.3514 104.69C88.35 104.69 88.3486 104.69 88.3472 104.69C88.3458 104.69 88.3445 104.69 88.3431 104.69C88.3417 104.69 88.3403 104.69 88.339 104.69C88.3376 104.69 88.3362 104.69 88.3349 104.69C88.3335 104.69 88.3321 104.69 88.3308 104.69C88.3294 104.69 88.3281 104.69 88.3267 104.69C88.3254 104.69 88.324 104.69 88.3227 104.69C88.3213 104.69 88.32 104.69 88.3187 104.69C88.3173 104.69 88.316 104.69 88.3147 104.69C88.3133 104.69 88.312 104.69 88.3107 104.69C88.3094 104.69 88.308 104.69 88.3067 104.69C88.3054 104.69 88.3041 104.69 88.3028 104.69C88.3015 104.69 88.3002 104.69 88.2989 104.69C88.2976 104.69 88.2963 104.69 88.295 104.69C88.2937 104.69 88.2924 104.69 88.2911 104.69C88.2898 104.69 88.2885 104.69 88.2872 104.69C88.2859 104.69 88.2847 104.69 88.2834 104.69C88.2821 104.69 88.2808 104.69 88.2795 104.69C88.2783 104.69 88.277 104.69 88.2757 104.69C88.2745 104.69 88.2732 104.69 88.272 104.69C88.2707 104.69 88.2694 104.69 88.2682 104.69C88.2669 104.69 88.2657 104.69 88.2645 104.69C88.2632 104.69 88.262 104.69 88.2607 104.69C88.2595 104.69 88.2582 104.69 88.257 104.69C88.2558 104.69 88.2546 104.69 88.2533 104.69C88.2521 104.69 88.2509 104.69 88.2497 104.69C88.2484 104.69 88.2472 104.69 88.246 104.69C88.2448 104.69 88.2436 104.69 88.2424 104.69C88.2412 104.69 88.24 104.69 88.2388 104.69C88.2376 104.69 88.2364 104.69 88.2352 104.69C88.234 104.69 88.2328 104.69 88.2316 104.69C88.2304 104.69 88.2292 104.69 88.2281 104.69C88.2269 104.69 88.2257 104.69 88.2245 104.69C88.2234 104.69 88.2222 104.69 88.221 104.69C88.2198 104.69 88.2187 104.69 88.2175 104.69C88.2164 104.69 88.2152 104.69 88.214 104.69C88.2129 104.69 88.2117 104.69 88.2106 104.69C88.2094 104.69 88.2083 104.69 88.2072 104.69C88.206 104.69 88.2049 104.69 88.2037 104.69C88.2026 104.69 88.2015 104.69 88.2003 104.69C88.1992 104.69 88.1981 104.69 88.197 104.69C88.1958 104.69 88.1947 104.69 88.1936 104.69C88.1925 104.69 88.1914 104.69 88.1903 104.69C88.1892 104.69 88.1881 104.69 88.187 104.69C88.1859 104.69 88.1847 104.69 88.1837 104.69C88.1826 104.69 88.1815 104.69 88.1804 104.69C88.1793 104.69 88.1782 104.69 88.1771 104.69C88.176 104.69 88.1749 104.69 88.1739 104.69C88.1728 104.69 88.1717 104.69 88.1707 104.69C88.1696 104.69 88.1685 104.69 88.1674 104.69C88.1664 104.69 88.1653 104.69 88.1643 104.69C88.1632 104.69 88.1622 104.69 88.1611 104.69C88.1601 104.69 88.159 104.69 88.158 104.69C88.1569 104.69 88.1559 104.69 88.1548 104.69C88.1538 104.69 88.1528 104.69 88.1517 104.69C88.1507 104.69 88.1497 104.69 88.1487 104.69C88.1476 104.69 88.1466 104.69 88.1456 104.69C88.1446 104.69 88.1436 104.69 88.1425 104.69C88.1415 104.69 88.1405 104.69 88.1395 104.69C88.1385 104.69 88.1375 104.69 88.1365 104.69C88.1355 104.69 88.1345 104.69 88.1335 104.69C88.1325 104.69 88.1315 104.69 88.1306 104.69C88.1296 104.69 88.1286 104.69 88.1276 104.69C88.1266 104.69 88.1256 104.69 88.1247 104.69C88.1237 104.69 88.1227 104.69 88.1218 104.69C88.1208 104.69 88.1198 104.69 88.1189 104.69C88.1179 104.69 88.117 104.69 88.116 104.69C88.1151 104.69 88.1141 104.69 88.1132 104.69C88.1122 104.69 88.1113 104.69 88.1103 104.69C88.1094 104.69 88.1084 104.69 88.1075 104.69C88.1066 104.69 88.1056 104.69 88.1047 104.69C88.1038 104.69 88.1029 104.69 88.1019 104.69C88.101 104.69 88.1001 104.69 88.0992 104.69C88.0983 104.69 88.0974 104.69 88.0965 104.69C88.0955 104.69 88.0946 104.69 88.0937 104.69C88.0928 104.69 88.0919 104.69 88.091 104.69C88.0901 104.69 88.0893 104.69 88.0884 104.69C88.0875 104.69 88.0866 104.69 88.0857 104.69C88.0848 104.69 88.0839 104.69 88.0831 104.69C88.0822 104.69 88.0813 104.69 88.0805 104.69C88.0796 104.69 88.0787 104.69 88.0779 104.69C88.077 104.69 88.0761 104.69 88.0753 104.69C88.0744 104.69 88.0736 104.69 88.0727 104.69C88.0719 104.69 88.071 104.69 88.0702 104.69C88.0693 104.69 88.0685 104.69 88.0677 104.69C88.0668 104.69 88.066 104.69 88.0652 104.69C88.0643 104.69 88.0635 104.69 88.0627 104.69C88.0619 104.69 88.061 104.69 88.0602 104.69C88.0594 104.69 88.0586 104.69 88.0578 104.69C88.057 104.69 88.0562 104.69 88.0554 104.69C88.0545 104.69 88.0537 104.69 88.0529 104.69C88.0521 104.69 88.0514 104.69 88.0506 104.69C88.0498 104.69 88.049 104.69 88.0482 104.69C88.0474 104.69 88.0466 104.69 88.0459 104.69C88.0451 104.69 88.0443 104.69 88.0435 104.69C88.0428 104.69 88.042 104.69 88.0412 104.69C88.0405 104.69 88.0397 104.69 88.0389 104.69C88.0382 104.69 88.0374 104.69 88.0367 104.69C88.0359 104.69 88.0352 104.69 88.0344 104.69C88.0337 104.69 88.0329 104.69 88.0322 104.69C88.0314 104.69 88.0307 104.69 88.03 104.69C88.0293 104.69 88.0285 104.69 88.0278 104.69C88.0271 104.69 88.0263 104.69 88.0256 104.69C88.0249 104.69 88.0242 104.69 88.0235 104.69C88.0228 104.69 88.022 104.69 88.0213 104.69C88.0206 104.69 88.0199 104.69 88.0192 104.69C88.0185 104.69 88.0178 104.69 88.0171 104.69C88.0164 104.69 88.0158 104.69 88.0151 104.69C88.0144 104.69 88.0137 104.69 88.013 104.69C88.0123 104.69 88.0117 104.69 88.011 104.69C88.0103 104.69 88.0096 104.69 88.009 104.69C88.0083 104.69 88.0076 104.69 88.007 104.69C88.0063 104.69 88.0056 104.69 88.005 104.69C88.0043 104.69 88.0037 104.69 88.003 104.69C88.0024 104.69 88.0017 104.69 88.0011 104.69C88.0005 104.69 87.9998 104.69 87.9992 104.69C87.9986 104.69 87.9979 104.69 87.9973 104.69C87.9967 104.69 87.996 104.69 87.9954 104.69C87.9948 104.69 87.9942 104.69 87.9935 104.69C87.9929 104.69 87.9923 104.69 87.9917 104.69C87.9911 104.69 87.9905 104.69 87.9899 104.69C87.9893 104.69 87.9887 104.69 87.9881 104.69C87.9875 104.69 87.9869 104.69 87.9863 104.69C87.9857 104.69 87.9851 104.69 87.9846 104.69C87.984 104.69 87.9834 104.69 87.9828 104.69C87.9822 104.69 87.9817 104.69 87.9811 104.69C87.9805 104.69 87.9799 104.69 87.9794 104.69C87.9788 104.69 87.9783 104.69 87.9777 104.69C87.9771 104.69 87.9766 104.69 87.976 104.69C87.9755 104.69 87.9749 104.69 87.9744 104.69C87.9738 104.69 87.9733 104.69 87.9728 104.69C87.9722 104.69 87.9717 104.69 87.9712 104.69C87.9706 104.69 87.9701 104.69 87.9696 104.69C87.969 104.69 87.9685 104.69 87.968 104.69C87.9675 104.69 87.967 104.69 87.9665 104.69C87.9659 104.69 87.9654 104.69 87.9649 104.69C87.9644 104.69 87.9639 104.69 87.9634 104.69C87.9629 104.69 87.9624 104.69 87.9619 104.69C87.9614 104.69 87.961 104.69 87.9605 104.69C87.96 104.69 87.9595 104.69 87.959 104.69C87.9585 104.69 87.9581 104.69 87.9576 104.69C87.9571 104.69 87.9566 104.69 87.9562 104.69C87.9557 104.69 87.9552 104.69 87.9548 104.69C87.9543 104.69 87.9539 104.69 87.9534 104.69C87.953 104.69 87.9525 104.69 87.9521 104.69C87.9516 104.69 87.9512 104.69 87.9507 104.69C87.9503 104.69 87.9498 104.69 87.9494 104.69C87.949 104.69 87.9485 104.69 87.9481 104.69C87.9477 104.69 87.9473 104.69 87.9468 104.69C87.9464 104.69 87.946 104.69 87.9456 104.69C87.9452 104.69 87.9448 104.69 87.9444 104.69C87.9439 104.69 87.9435 104.69 87.9431 104.69C87.9427 104.69 87.9423 104.69 87.9419 104.69C87.9415 104.69 87.9411 104.69 87.9408 104.69C87.9404 104.69 87.94 104.69 87.9396 104.69C87.9392 104.69 87.9388 104.69 87.9385 104.69C87.9381 104.69 87.9377 104.69 87.9373 104.69C87.937 104.69 87.9366 104.69 87.9362 104.69C87.9359 104.69 87.9355 104.69 87.9352 104.69C87.9348 104.69 87.9344 104.69 87.9341 104.69C87.9338 104.69 87.9334 104.69 87.9331 104.69C87.9327 104.69 87.9324 104.69 87.932 104.69C87.9317 104.69 87.9314 104.69 87.931 104.69C87.9307 104.69 87.9304 104.69 87.9301 104.69C87.9297 104.69 87.9294 104.69 87.9291 104.69C87.9288 104.69 87.9285 104.69 87.9281 104.69C87.9278 104.69 87.9275 104.69 87.9272 104.69C87.9269 104.69 87.9266 104.69 87.9263 104.69C87.926 104.69 87.9257 104.69 87.9254 104.69C87.9251 104.69 87.9249 104.69 87.9246 104.69C87.9243 104.69 87.924 104.69 87.9237 104.69C87.9234 104.69 87.9232 104.69 87.9229 104.69C87.9226 104.69 87.9223 104.69 87.9221 104.69C87.9218 104.69 87.9216 104.69 87.9213 104.69C87.921 104.69 87.9208 104.69 87.9205 104.69C87.9203 104.69 87.92 104.69 87.9198 104.69C87.9195 104.69 87.9193 104.69 87.919 104.69C87.9188 104.69 87.9186 104.69 87.9183 104.69C87.9181 104.69 87.9179 104.69 87.9176 104.69C87.9174 104.69 87.9172 104.69 87.917 104.69C87.9168 104.69 87.9165 104.69 87.9163 104.69C87.9161 104.69 87.9159 104.69 87.9157 104.69C87.9155 104.69 87.9153 104.69 87.9151 104.69C87.9149 104.69 87.9147 104.69 87.9145 104.69C87.9143 104.69 87.9141 104.69 87.9139 104.69C87.9137 104.69 87.9135 104.69 87.9134 104.69C87.9132 104.69 87.913 104.69 87.9128 104.69C87.9126 104.69 87.9125 104.69 87.9123 104.69C87.9121 104.69 87.912 104.69 87.9118 104.69C87.9116 104.69 87.9115 104.69 87.9113 104.69C87.9112 104.69 87.911 104.69 87.9109 104.69C87.9107 104.69 87.9106 104.69 87.9104 104.69C87.9103 104.69 87.9102 104.69 87.91 104.69C87.9099 104.69 87.9098 104.69 87.9096 104.69C87.9095 104.69 87.9094 104.69 87.9092 104.69C87.9091 104.69 87.909 104.69 87.9089 104.69C87.9088 104.69 87.9086 104.69 87.9085 104.69C87.9084 104.69 87.9083 104.69 87.9082 104.69C87.9081 104.69 87.908 104.69 87.9079 104.69C87.9078 104.69 87.9077 104.69 87.9076 104.69C87.9075 104.69 87.9075 104.69 87.9074 104.69C87.9073 104.69 87.9072 104.69 87.9071 104.69C87.9071 104.69 87.907 104.69 87.9069 104.69C87.9068 104.69 87.9068 104.69 87.9067 104.69C87.9066 104.69 87.9066 104.69 87.9065 104.69C87.9065 104.69 87.9064 104.69 87.9063 104.69C87.9063 104.69 87.9062 104.69 87.9062 104.69C87.9062 104.69 87.9061 104.69 87.9061 104.69C87.906 104.69 87.906 104.69 87.906 104.69C87.9059 104.69 87.9059 104.69 87.9059 104.69C87.9059 104.69 87.9058 104.69 87.9058 104.69C87.9058 104.69 87.9058 104.69 87.9058 104.69C87.9058 104.69 87.9057 104.69 87.9057 104.69C87.9057 104.69 87.9057 104.69 87.9057 109.69C87.9057 114.69 87.9057 114.69 87.9057 114.69C87.9057 114.69 87.9058 114.69 87.9058 114.69C87.9058 114.69 87.9058 114.69 87.9058 114.69C87.9058 114.69 87.9059 114.69 87.9059 114.69C87.9059 114.69 87.9059 114.69 87.906 114.69C87.906 114.69 87.906 114.69 87.9061 114.69C87.9061 114.69 87.9062 114.69 87.9062 114.69C87.9062 114.69 87.9063 114.69 87.9063 114.69C87.9064 114.69 87.9065 114.69 87.9065 114.69C87.9066 114.69 87.9066 114.69 87.9067 114.69C87.9068 114.69 87.9068 114.69 87.9069 114.69C87.907 114.69 87.9071 114.69 87.9071 114.69C87.9072 114.69 87.9073 114.69 87.9074 114.69C87.9075 114.69 87.9075 114.69 87.9076 114.69C87.9077 114.69 87.9078 114.69 87.9079 114.69C87.908 114.69 87.9081 114.69 87.9082 114.69C87.9083 114.69 87.9084 114.69 87.9085 114.69C87.9086 114.69 87.9088 114.69 87.9089 114.69C87.909 114.69 87.9091 114.69 87.9092 114.69C87.9094 114.69 87.9095 114.69 87.9096 114.69C87.9098 114.69 87.9099 114.69 87.91 114.69C87.9102 114.69 87.9103 114.69 87.9104 114.69C87.9106 114.69 87.9107 114.69 87.9109 114.69C87.911 114.69 87.9112 114.69 87.9113 114.69C87.9115 114.69 87.9116 114.69 87.9118 114.69C87.912 114.69 87.9121 114.69 87.9123 114.69C87.9125 114.69 87.9126 114.69 87.9128 114.69C87.913 114.69 87.9132 114.69 87.9134 114.69C87.9135 114.69 87.9137 114.69 87.9139 114.69C87.9141 114.69 87.9143 114.69 87.9145 114.69C87.9147 114.69 87.9149 114.69 87.9151 114.69C87.9153 114.69 87.9155 114.69 87.9157 114.69C87.9159 114.69 87.9161 114.69 87.9163 114.69C87.9165 114.69 87.9168 114.69 87.917 114.69C87.9172 114.69 87.9174 114.69 87.9176 114.69C87.9179 114.69 87.9181 114.69 87.9183 114.69C87.9186 114.69 87.9188 114.69 87.919 114.69C87.9193 114.69 87.9195 114.69 87.9198 114.69C87.92 114.69 87.9203 114.69 87.9205 114.69C87.9208 114.69 87.921 114.69 87.9213 114.69C87.9216 114.69 87.9218 114.69 87.9221 114.69C87.9223 114.69 87.9226 114.69 87.9229 114.69C87.9232 114.69 87.9234 114.69 87.9237 114.69C87.924 114.69 87.9243 114.69 87.9246 114.69C87.9249 114.69 87.9251 114.69 87.9254 114.69C87.9257 114.69 87.926 114.69 87.9263 114.69C87.9266 114.69 87.9269 114.69 87.9272 114.69C87.9275 114.69 87.9278 114.69 87.9281 114.69C87.9285 114.69 87.9288 114.69 87.9291 114.69C87.9294 114.69 87.9297 114.69 87.9301 114.69C87.9304 114.69 87.9307 114.69 87.931 114.69C87.9314 114.69 87.9317 114.69 87.932 114.69C87.9324 114.69 87.9327 114.69 87.9331 114.69C87.9334 114.69 87.9338 114.69 87.9341 114.69C87.9344 114.69 87.9348 114.69 87.9352 114.69C87.9355 114.69 87.9359 114.69 87.9362 114.69C87.9366 114.69 87.937 114.69 87.9373 114.69C87.9377 114.69 87.9381 114.69 87.9385 114.69C87.9388 114.69 87.9392 114.69 87.9396 114.69C87.94 114.69 87.9404 114.69 87.9408 114.69C87.9411 114.69 87.9415 114.69 87.9419 114.69C87.9423 114.69 87.9427 114.69 87.9431 114.69C87.9435 114.69 87.9439 114.69 87.9444 114.69C87.9448 114.69 87.9452 114.69 87.9456 114.69C87.946 114.69 87.9464 114.69 87.9468 114.69C87.9473 114.69 87.9477 114.69 87.9481 114.69C87.9485 114.69 87.949 114.69 87.9494 114.69C87.9498 114.69 87.9503 114.69 87.9507 114.69C87.9512 114.69 87.9516 114.69 87.9521 114.69C87.9525 114.69 87.953 114.69 87.9534 114.69C87.9539 114.69 87.9543 114.69 87.9548 114.69C87.9552 114.69 87.9557 114.69 87.9562 114.69C87.9566 114.69 87.9571 114.69 87.9576 114.69C87.9581 114.69 87.9585 114.69 87.959 114.69C87.9595 114.69 87.96 114.69 87.9605 114.69C87.961 114.69 87.9614 114.69 87.9619 114.69C87.9624 114.69 87.9629 114.69 87.9634 114.69C87.9639 114.69 87.9644 114.69 87.9649 114.69C87.9654 114.69 87.9659 114.69 87.9665 114.69C87.967 114.69 87.9675 114.69 87.968 114.69C87.9685 114.69 87.969 114.69 87.9696 114.69C87.9701 114.69 87.9706 114.69 87.9712 114.69C87.9717 114.69 87.9722 114.69 87.9728 114.69C87.9733 114.69 87.9738 114.69 87.9744 114.69C87.9749 114.69 87.9755 114.69 87.976 114.69C87.9766 114.69 87.9771 114.69 87.9777 114.69C87.9783 114.69 87.9788 114.69 87.9794 114.69C87.9799 114.69 87.9805 114.69 87.9811 114.69C87.9817 114.69 87.9822 114.69 87.9828 114.69C87.9834 114.69 87.984 114.69 87.9846 114.69C87.9851 114.69 87.9857 114.69 87.9863 114.69C87.9869 114.69 87.9875 114.69 87.9881 114.69C87.9887 114.69 87.9893 114.69 87.9899 114.69C87.9905 114.69 87.9911 114.69 87.9917 114.69C87.9923 114.69 87.9929 114.69 87.9935 114.69C87.9942 114.69 87.9948 114.69 87.9954 114.69C87.996 114.69 87.9967 114.69 87.9973 114.69C87.9979 114.69 87.9986 114.69 87.9992 114.69C87.9998 114.69 88.0005 114.69 88.0011 114.69C88.0017 114.69 88.0024 114.69 88.003 114.69C88.0037 114.69 88.0043 114.69 88.005 114.69C88.0056 114.69 88.0063 114.69 88.007 114.69C88.0076 114.69 88.0083 114.69 88.009 114.69C88.0096 114.69 88.0103 114.69 88.011 114.69C88.0117 114.69 88.0123 114.69 88.013 114.69C88.0137 114.69 88.0144 114.69 88.0151 114.69C88.0158 114.69 88.0164 114.69 88.0171 114.69C88.0178 114.69 88.0185 114.69 88.0192 114.69C88.0199 114.69 88.0206 114.69 88.0213 114.69C88.022 114.69 88.0228 114.69 88.0235 114.69C88.0242 114.69 88.0249 114.69 88.0256 114.69C88.0263 114.69 88.0271 114.69 88.0278 114.69C88.0285 114.69 88.0293 114.69 88.03 114.69C88.0307 114.69 88.0314 114.69 88.0322 114.69C88.0329 114.69 88.0337 114.69 88.0344 114.69C88.0352 114.69 88.0359 114.69 88.0367 114.69C88.0374 114.69 88.0382 114.69 88.0389 114.69C88.0397 114.69 88.0405 114.69 88.0412 114.69C88.042 114.69 88.0428 114.69 88.0435 114.69C88.0443 114.69 88.0451 114.69 88.0459 114.69C88.0466 114.69 88.0474 114.69 88.0482 114.69C88.049 114.69 88.0498 114.69 88.0506 114.69C88.0514 114.69 88.0521 114.69 88.0529 114.69C88.0537 114.69 88.0545 114.69 88.0554 114.69C88.0562 114.69 88.057 114.69 88.0578 114.69C88.0586 114.69 88.0594 114.69 88.0602 114.69C88.061 114.69 88.0619 114.69 88.0627 114.69C88.0635 114.69 88.0643 114.69 88.0652 114.69C88.066 114.69 88.0668 114.69 88.0677 114.69C88.0685 114.69 88.0693 114.69 88.0702 114.69C88.071 114.69 88.0719 114.69 88.0727 114.69C88.0736 114.69 88.0744 114.69 88.0753 114.69C88.0761 114.69 88.077 114.69 88.0779 114.69C88.0787 114.69 88.0796 114.69 88.0805 114.69C88.0813 114.69 88.0822 114.69 88.0831 114.69C88.0839 114.69 88.0848 114.69 88.0857 114.69C88.0866 114.69 88.0875 114.69 88.0884 114.69C88.0893 114.69 88.0901 114.69 88.091 114.69C88.0919 114.69 88.0928 114.69 88.0937 114.69C88.0946 114.69 88.0955 114.69 88.0965 114.69C88.0974 114.69 88.0983 114.69 88.0992 114.69C88.1001 114.69 88.101 114.69 88.1019 114.69C88.1029 114.69 88.1038 114.69 88.1047 114.69C88.1056 114.69 88.1066 114.69 88.1075 114.69C88.1084 114.69 88.1094 114.69 88.1103 114.69C88.1113 114.69 88.1122 114.69 88.1132 114.69C88.1141 114.69 88.1151 114.69 88.116 114.69C88.117 114.69 88.1179 114.69 88.1189 114.69C88.1198 114.69 88.1208 114.69 88.1218 114.69C88.1227 114.69 88.1237 114.69 88.1247 114.69C88.1256 114.69 88.1266 114.69 88.1276 114.69C88.1286 114.69 88.1296 114.69 88.1306 114.69C88.1315 114.69 88.1325 114.69 88.1335 114.69C88.1345 114.69 88.1355 114.69 88.1365 114.69C88.1375 114.69 88.1385 114.69 88.1395 114.69C88.1405 114.69 88.1415 114.69 88.1425 114.69C88.1436 114.69 88.1446 114.69 88.1456 114.69C88.1466 114.69 88.1476 114.69 88.1487 114.69C88.1497 114.69 88.1507 114.69 88.1517 114.69C88.1528 114.69 88.1538 114.69 88.1548 114.69C88.1559 114.69 88.1569 114.69 88.158 114.69C88.159 114.69 88.1601 114.69 88.1611 114.69C88.1622 114.69 88.1632 114.69 88.1643 114.69C88.1653 114.69 88.1664 114.69 88.1674 114.69C88.1685 114.69 88.1696 114.69 88.1707 114.69C88.1717 114.69 88.1728 114.69 88.1739 114.69C88.1749 114.69 88.176 114.69 88.1771 114.69C88.1782 114.69 88.1793 114.69 88.1804 114.69C88.1815 114.69 88.1826 114.69 88.1837 114.69C88.1847 114.69 88.1859 114.69 88.187 114.69C88.1881 114.69 88.1892 114.69 88.1903 114.69C88.1914 114.69 88.1925 114.69 88.1936 114.69C88.1947 114.69 88.1958 114.69 88.197 114.69C88.1981 114.69 88.1992 114.69 88.2003 114.69C88.2015 114.69 88.2026 114.69 88.2037 114.69C88.2049 114.69 88.206 114.69 88.2072 114.69C88.2083 114.69 88.2094 114.69 88.2106 114.69C88.2117 114.69 88.2129 114.69 88.214 114.69C88.2152 114.69 88.2164 114.69 88.2175 114.69C88.2187 114.69 88.2198 114.69 88.221 114.69C88.2222 114.69 88.2234 114.69 88.2245 114.69C88.2257 114.69 88.2269 114.69 88.2281 114.69C88.2292 114.69 88.2304 114.69 88.2316 114.69C88.2328 114.69 88.234 114.69 88.2352 114.69C88.2364 114.69 88.2376 114.69 88.2388 114.69C88.24 114.69 88.2412 114.69 88.2424 114.69C88.2436 114.69 88.2448 114.69 88.246 114.69C88.2472 114.69 88.2484 114.69 88.2497 114.69C88.2509 114.69 88.2521 114.69 88.2533 114.69C88.2546 114.69 88.2558 114.69 88.257 114.69C88.2582 114.69 88.2595 114.69 88.2607 114.69C88.262 114.69 88.2632 114.69 88.2645 114.69C88.2657 114.69 88.2669 114.69 88.2682 114.69C88.2694 114.69 88.2707 114.69 88.272 114.69C88.2732 114.69 88.2745 114.69 88.2757 114.69C88.277 114.69 88.2783 114.69 88.2795 114.69C88.2808 114.69 88.2821 114.69 88.2834 114.69C88.2847 114.69 88.2859 114.69 88.2872 114.69C88.2885 114.69 88.2898 114.69 88.2911 114.69C88.2924 114.69 88.2937 114.69 88.295 114.69C88.2963 114.69 88.2976 114.69 88.2989 114.69C88.3002 114.69 88.3015 114.69 88.3028 114.69C88.3041 114.69 88.3054 114.69 88.3067 114.69C88.308 114.69 88.3094 114.69 88.3107 114.69C88.312 114.69 88.3133 114.69 88.3147 114.69C88.316 114.69 88.3173 114.69 88.3187 114.69C88.32 114.69 88.3213 114.69 88.3227 114.69C88.324 114.69 88.3254 114.69 88.3267 114.69C88.3281 114.69 88.3294 114.69 88.3308 114.69C88.3321 114.69 88.3335 114.69 88.3349 114.69C88.3362 114.69 88.3376 114.69 88.339 114.69C88.3403 114.69 88.3417 114.69 88.3431 114.69C88.3445 114.69 88.3458 114.69 88.3472 114.69C88.3486 114.69 88.35 114.69 88.3514 114.69C88.3528 114.69 88.3541 114.69 88.3555 114.69C88.3569 114.69 88.3583 114.69 88.3597 114.69C88.3611 114.69 88.3625 114.69 88.3639 114.69C88.3654 114.69 88.3668 114.69 88.3682 114.69C88.3696 114.69 88.371 114.69 88.3724 114.69C88.3739 114.69 88.3753 114.69 88.3767 114.69C88.3781 114.69 88.3796 114.69 88.381 114.69C88.3824 114.69 88.3839 114.69 88.3853 114.69C88.3867 114.69 88.3882 114.69 88.3896 114.69C88.3911 114.69 88.3925 114.69 88.394 114.69C88.3954 114.69 88.3969 114.69 88.3984 114.69C88.3998 114.69 88.4013 114.69 88.4027 114.69C88.4042 114.69 88.4057 114.69 88.4072 114.69C88.4086 114.69 88.4101 114.69 88.4116 114.69C88.4131 114.69 88.4145 114.69 88.416 114.69C88.4175 114.69 88.419 114.69 88.4205 114.69C88.422 114.69 88.4235 114.69 88.425 114.69C88.4265 114.69 88.428 114.69 88.4295 114.69C88.431 114.69 88.4325 114.69 88.434 114.69C88.4355 114.69 88.437 114.69 88.4386 114.69C88.4401 114.69 88.4416 114.69 88.4431 114.69C88.4446 114.69 88.4462 114.69 88.4477 114.69C88.4492 114.69 88.4508 114.69 88.4523 114.69C88.4538 114.69 88.4554 114.69 88.4569 114.69C88.4585 114.69 88.46 114.69 88.4616 114.69C88.4631 114.69 88.4647 114.69 88.4662 114.69C88.4678 114.69 88.4693 114.69 88.4709 114.69C88.4725 114.69 88.474 114.69 88.4756 114.69C88.4772 114.69 88.4788 114.69 88.4803 114.69C88.4819 114.69 88.4835 114.69 88.4851 114.69C88.4867 114.69 88.4882 114.69 88.4898 114.69C88.4914 114.69 88.493 114.69 88.4946 114.69C88.4962 114.69 88.4978 114.69 88.4994 114.69C88.501 114.69 88.5026 114.69 88.5042 114.69C88.5058 114.69 88.5074 114.69 88.5091 114.69C88.5107 114.69 88.5123 114.69 88.5139 114.69C88.5155 114.69 88.5172 114.69 88.5188 114.69C88.5204 114.69 88.522 114.69 88.5237 114.69C88.5253 114.69 88.527 114.69 88.5286 114.69C88.5302 114.69 88.5319 114.69 88.5335 114.69C88.5352 114.69 88.5368 114.69 88.5385 114.69C88.5401 114.69 88.5418 114.69 88.5435 114.69V104.69ZM55.4833 0V11.9043H65.4833V0H55.4833ZM60.4833 16.9043C84.1387 16.9043 103.951 35.9803 103.951 60.3718H113.951C113.951 30.3436 89.547 6.90429 60.4833 6.90429V16.9043ZM108.951 65.3718H120.855V55.3718H108.951V65.3718ZM125.854 60.2468C124.938 23.6397 96.4737 -5 60.4833 -5V5C90.8169 5 115.071 29.0793 115.857 60.4967L125.854 60.2468ZM55.4833 23.8086V35.7129H65.4833V23.8086H55.4833ZM60.4833 40.7129C71.2112 40.7129 79.2919 49.4112 79.2919 59.5215H89.2919C89.2919 44.1225 76.9653 30.7129 60.4833 30.7129V40.7129ZM84.2919 64.5215H96.1962V54.5215H84.2919V64.5215ZM101.196 59.5215C101.196 37.203 82.8018 18.8086 60.4833 18.8086V28.8086C77.279 28.8086 91.1962 42.7258 91.1962 59.5215H101.196ZM55.4833 47.6172V59.5215H65.4833V47.6172H55.4833ZM60.4833 64.5215H72.3876V54.5215H60.4833V64.5215ZM77.3876 59.5215C77.3876 54.9192 75.1369 50.7355 72.2031 47.8017C69.2693 44.8679 65.0856 42.6172 60.4833 42.6172V52.6172C61.8333 52.6172 63.6017 53.3425 65.132 54.8728C66.6623 56.4031 67.3876 58.1715 67.3876 59.5215H77.3876Z" fill="#992929" mask="url(#path-1-inside-1)"/>
</svg>
