<svg width="117" height="150" viewBox="0 0 117 150" fill="none" xmlns="http://www.w3.org/2000/svg">
<path d="M116.016 24.4673L91.5483 0H18.75V79.7678C8.2626 80.6631 0 89.4797 0 100.195C0 106.348 2.72695 111.871 7.03125 115.634V150H11.8608L20.5078 141.353L29.1548 150H33.9844V134.766H116.016V24.4673ZM92.5781 6.00146L110.014 23.4375H92.5781V6.00146ZM3.51562 100.195C3.51562 90.8259 11.1384 83.2031 20.5078 83.2031C29.8772 83.2031 37.5 90.8259 37.5 100.195C37.5 109.565 29.8772 117.188 20.5078 117.188C11.1384 117.188 3.51562 109.565 3.51562 100.195ZM20.5078 136.381L10.5469 146.342V118.113C13.4985 119.76 16.8943 120.703 20.5078 120.703C24.1213 120.703 27.5171 119.76 30.4688 118.113V146.342L20.5078 136.381ZM33.9844 131.25V115.634C38.2887 111.871 41.0156 106.348 41.0156 100.195C41.0156 89.48 32.753 80.6634 22.2656 79.7678V3.51562H89.0625V26.9531H112.5V131.25H33.9844Z" fill="#7A1E21"/>
<path d="M34.5703 18.75H62.6953V22.2656H34.5703V18.75Z" fill="#7A1E21"/>
<path d="M34.5703 28.125H53.3203V31.6406H34.5703V28.125Z" fill="#7A1E21"/>
<path d="M34.5703 42.1875H100.195V45.7031H34.5703V42.1875Z" fill="#7A1E21"/>
<path d="M34.5703 51.5625H100.195V55.0781H34.5703V51.5625Z" fill="#7A1E21"/>
<path d="M34.5703 70.3125H100.195V73.8281H34.5703V70.3125Z" fill="#7A1E21"/>
<path d="M43.9453 79.6875H90.8203V83.2031H43.9453V79.6875Z" fill="#7A1E21"/>
<path d="M34.5703 60.9375H100.195V64.4531H34.5703V60.9375Z" fill="#7A1E21"/>
<path d="M72.0703 93.75H100.195V97.2656H72.0703V93.75Z" fill="#7A1E21"/>
<path d="M81.4453 103.125H100.195V106.641H81.4453V103.125Z" fill="#7A1E21"/>
<path d="M20.5078 111.328C26.6464 111.328 31.6406 106.334 31.6406 100.195C31.6406 94.0567 26.6464 89.0625 20.5078 89.0625C14.3692 89.0625 9.375 94.0567 9.375 100.195C9.375 106.334 14.3692 111.328 20.5078 111.328ZM20.5078 92.5781C24.7081 92.5781 28.125 95.995 28.125 100.195C28.125 104.396 24.7081 107.812 20.5078 107.812C16.3075 107.812 12.8906 104.396 12.8906 100.195C12.8906 95.995 16.3075 92.5781 20.5078 92.5781Z" fill="#7A1E21"/>
</svg>
