<svg width="121" height="120" fill="none" xmlns="http://www.w3.org/2000/svg"><mask id="a" fill="#fff"><path d="M85.142 93.534c-4.251-2.551-8.503-5.102-12.754-6.803-8.503-3.401-7.653 6.803-13.605 10.204-4.252 2.55-9.354-1.7-12.755-4.252-5.952-3.4-11.054-8.503-15.305-14.455-2.551-2.55-7.653-8.503-6.803-12.754.85-6.803 8.503-6.803 6.803-14.456-2.551-4.251-4.252-8.503-5.953-12.754-1.7-5.102-3.4-9.354-9.353-8.503-4.251 0-7.653 2.55-10.204 5.952-7.652 9.353-5.952 22.108-.85 33.162 6.803 15.305 19.557 28.91 32.312 38.264 8.503 5.952 20.407 11.904 30.61 12.754 7.654.851 18.708-3.401 21.258-11.904 0 .85 0 .85-.85 1.701 0 0 0-.851.85-1.701 0-.85 0-1.701.85-1.701 0 0 0 .851-.85 1.701 2.551-7.653 2.551-11.054-3.4-14.455zm3.401 16.156c-.85 0-.85 0 0 0zM60.483 0v11.904c26.36 0 48.468 21.258 48.468 48.468h11.904C120.005 26.36 93.645 0 60.483 0zm0 23.809v11.904c13.605 0 23.809 11.054 23.809 23.809h11.904c0-19.558-16.156-35.713-35.713-35.713zm0 23.808v11.905h11.905c0-5.953-5.953-11.905-11.905-11.905z"/></mask><path d="M85.142 93.534L82.57 97.82l.045.028.047.026 2.48-4.341zm-26.36 3.4l-2.48-4.34-.046.026-.046.027 2.573 4.288zm-12.754-4.25l3-4-.249-.187-.27-.155-2.48 4.341zM30.723 78.227l4.068-2.906-.24-.337-.293-.292-3.535 3.535zM23.92 65.474l4.903.98.036-.179.022-.181-4.96-.62zm6.803-14.456l4.88-1.084-.175-.792-.418-.696-4.287 2.572zM24.77 38.264l-4.743 1.58.046.14.055.137 4.642-1.857zm-9.353-8.503v5h.355l.352-.05-.707-4.95zM5.213 35.713l3.87 3.166.067-.082.063-.084-4-3zm-.85 33.162l4.57-2.03-.015-.033-.015-.032-4.54 2.095zm32.312 38.264l-2.957 4.032.044.032.045.032 2.868-4.096zm30.61 12.754l.553-4.969-.068-.008-.069-.006-.415 4.983zm21.258-11.904h5l-9.789-1.437 4.79 1.437zm-.85 1.701h-5v12.071l8.536-8.536-3.536-3.535zm.85-1.701l3.536 3.535 1.465-1.464v-2.071h-5zm.85-1.701h5v-5h-5v5zm-.85 1.701l-4.743-1.581 8.279 5.116-3.535-3.535zM60.483 0v-5h-5v5h5zm0 11.904h-5v5h5v-5zm48.468 48.468h-5v5h5v-5zm11.904 0v5h5.127l-.128-5.125-4.999.125zM60.483 23.809v-5h-5v5h5zm0 11.904h-5v5h5v-5zm23.809 23.809h-5v5h5v-5zm11.904 0v5h5v-5h-5zM60.483 47.617v-5h-5v5h5zm0 11.905h-5v5h5v-5zm11.905 0v5h5v-5h-5zm15.327 29.724c-4.173-2.503-8.778-5.28-13.47-7.157l-3.714 9.285c3.81 1.524 7.709 3.85 12.039 6.447l5.145-8.575zm-13.47-7.157c-2.891-1.156-5.903-1.503-8.745-.254-2.64 1.16-4.185 3.315-5.111 4.797-.485.775-.936 1.6-1.301 2.26a32.375 32.375 0 01-1.068 1.828c-.69 1.07-1.225 1.592-1.718 1.874l4.961 8.682c2.483-1.419 4.074-3.448 5.164-5.14a41.748 41.748 0 001.407-2.397c.416-.75.722-1.306 1.035-1.807.668-1.069.876-1.04.655-.942-.425.186-.354-.16 1.007.384l3.714-9.285zM56.21 92.647c-.007.005-.358.33-1.974-.439-1.662-.791-3.288-2.085-5.208-3.525l-6 8c1.481 1.111 4.107 3.22 6.909 4.554 2.848 1.356 7.174 2.532 11.418-.015l-5.145-8.575zm-7.701-4.305c-5.164-2.95-9.762-7.482-13.718-13.02l-8.137 5.812c4.547 6.367 10.153 12.039 16.893 15.89l4.962-8.682zm-14.25-13.65c-1.13-1.128-2.772-2.966-3.995-4.888-.61-.957-1.028-1.802-1.255-2.484-.236-.706-.17-.947-.186-.866l-9.806-1.961c-.837 4.188 1.248 8.224 2.81 10.68 1.754 2.755 3.938 5.168 5.36 6.59l7.071-7.07zm-5.378-8.598c.168-1.342.705-1.766 2.933-3.994.989-.989 2.411-2.495 3.3-4.632.946-2.277 1.102-4.78.49-7.534l-9.762 2.169c.238 1.072.074 1.438.038 1.526-.095.229-.32.583-1.138 1.4-1.386 1.386-5.1 4.364-5.783 9.824l9.922 1.24zm6.13-17.648c-2.316-3.858-3.881-7.747-5.598-12.04l-9.285 3.715c1.684 4.21 3.52 8.825 6.307 13.47l8.575-5.145zm-5.497-11.763c-.794-2.381-1.907-5.707-4.047-8.177-1.174-1.354-2.7-2.523-4.662-3.211-1.936-.68-3.994-.784-6.095-.484l1.414 9.9c.876-.126 1.262-.018 1.372.02.084.03.205.083.414.324.248.286.569.785.952 1.644.383.86.742 1.878 1.165 3.146l9.487-3.162zM15.417 24.76c-6.465 0-11.173 3.91-14.204 7.952l8 6c2.071-2.761 4.166-3.952 6.204-3.952v-10zM1.344 32.547C-8.158 44.159-5.548 59.332-.176 70.97l9.079-4.19c-4.832-10.47-5.624-20.807.18-27.9l-7.74-6.333zm-1.55 38.359c7.253 16.32 20.688 30.558 33.924 40.265l5.914-8.064c-12.274-9-24.348-21.972-30.7-36.263l-9.138 4.062zm34.013 40.329c8.798 6.158 21.572 12.683 33.064 13.641l.83-9.966c-8.916-.742-19.95-6.122-28.159-11.868l-5.735 8.193zm32.927 13.628c4.869.541 10.509-.532 15.33-2.942 4.821-2.411 9.472-6.508 11.269-12.495l-9.579-2.874c-.754 2.516-2.905 4.796-6.162 6.424-3.257 1.629-6.97 2.257-9.754 1.948l-1.104 9.939zm16.81-16.874l-.001.182c0 .02 0-.054.012-.175a4.069 4.069 0 01.753-1.956c.087-.118.152-.191.16-.2l-.065.068-.245.246 7.07 7.071c.175-.175.445-.442.673-.696.238-.264.66-.759 1.008-1.454.744-1.488.634-3.04.634-3.086h-10zm4.15 1.701c5 0 5 .002 5 .004v.015l-.001.019a4.253 4.253 0 01-.037.523 2.801 2.801 0 01-.113.488c-.11.33-.278.6-.464.785l-7.071-7.071a8.002 8.002 0 00-1.952 3.124 7.231 7.231 0 00-.3 1.259 6.453 6.453 0 00-.062.772v.077c0 .002 0 .005 5 .005zm5.85-1.701v-.238c.001-.055.003-.068.002-.054-.001.013-.006.081-.023.188a3.377 3.377 0 01-.13.516 4.224 4.224 0 01-1.421 1.98 4.234 4.234 0 01-2.578.907v-10c-1.077 0-2.387.286-3.562 1.2a5.77 5.77 0 00-1.926 2.751c-.419 1.256-.363 2.608-.363 2.75h10zm-4.15-1.701c-5 0-5-.002-5-.005v-.033a5.071 5.071 0 01.01-.256 3.54 3.54 0 01.027-.267c.024-.169.061-.332.113-.488.11-.33.278-.6.464-.786l7.071 7.071a7.998 7.998 0 001.952-3.123 7.38 7.38 0 00.3-1.259 6.453 6.453 0 00.062-.772v-.077c0-.002 0-.005-5-.005zm3.893 3.282c1.241-3.724 2.356-7.663 1.656-11.339-.816-4.286-3.748-6.997-7.32-9.038l-4.962 8.682c2.38 1.36 2.425 2.05 2.459 2.228.15.788-.01 2.376-1.32 6.305l9.487 3.162zm-4.744-4.88h-.636v10h.637v-10h-.637v10h.637v-10zM55.483 0v11.904h10V0h-10zm5 16.904c23.656 0 43.468 19.076 43.468 43.468h10c0-30.028-24.404-53.468-53.468-53.468v10zm48.468 48.468h11.904v-10h-11.904v10zm16.903-5.125C124.938 23.64 96.474-5 60.484-5V5c30.333 0 54.587 24.08 55.373 55.497l9.997-.25zm-70.37-36.438v11.904h10V23.809h-10zm5 16.904c10.727 0 18.808 8.698 18.808 18.809h10c0-15.4-12.327-28.81-28.809-28.81v10zm23.808 23.809h11.904v-10H84.292v10zm16.904-5c0-22.319-18.394-40.713-40.713-40.713v10c16.796 0 30.713 13.917 30.713 30.713h10zM55.483 47.617v11.905h10V47.617h-10zm5 16.905h11.905v-10H60.483v10zm16.905-5c0-4.603-2.251-8.786-5.185-11.72-2.934-2.934-7.117-5.185-11.72-5.185v10c1.35 0 3.119.726 4.649 2.256 1.53 1.53 2.256 3.299 2.256 4.649h10z" fill="#992929" mask="url(#a)"/></svg>