<svg width="16" height="16" viewBox="0 0 16 16" fill="none" xmlns="http://www.w3.org/2000/svg">
<path d="M15.4434 1.60742L12.3965 0.904297C12.0742 0.816406 11.7227 0.992188 11.5762 1.31445L10.1699 4.5957C10.0527 4.88867 10.1406 5.21094 10.375 5.41602L12.1621 6.88086C11.1074 9.10742 9.26172 10.9824 6.97656 12.0664L5.51172 10.2793C5.30664 10.0449 4.98438 9.95703 4.69141 10.0742L1.41016 11.4805C1.08789 11.627 0.941406 11.9785 1 12.3008L1.70312 15.3477C1.79102 15.6699 2.05469 15.875 2.40625 15.875C9.90625 15.875 16 9.81055 16 2.28125C16 1.95898 15.7656 1.69531 15.4434 1.60742Z" fill="#202E42" fill-opacity="0.5"/>
</svg>
